<svg xmlns="http://www.w3.org/2000/svg" viewBox="0 0 500 500"><g id="freepik--Floor--inject-121"><path id="freepik--floor--inject-121" d="M103.11,270.12c-83.63,48.28-83.63,126.56,0,174.85S322.33,493.25,406,445s83.63-126.57,0-174.85S186.74,221.83,103.11,270.12Z" style="fill:#fafafa"></path></g><g id="freepik--Crane--inject-121"><g id="freepik--crane--inject-121"><g id="freepik--crane--inject-121"><path d="M324.75,164.56a.56.56,0,0,1-.56-.56V137.22a.56.56,0,0,1,1.12,0V164A.56.56,0,0,1,324.75,164.56Z" style="fill:#f0f0f0"></path><path d="M327.74,164a3,3,0,1,1-3-3A3,3,0,0,1,327.74,164Z" style="fill:#f0f0f0"></path><path d="M323.51,182.18a2.59,2.59,0,0,1-1.3-.35c-1.18-.68-1.85-2.24-1.85-4.28a.87.87,0,0,1,1.74,0c0,1.63.5,2.5,1,2.77a1.2,1.2,0,0,0,1.23-.13c1.68-1,3.09-4,3.09-6.7,0-1.63-.5-2.5-1-2.77a1.22,1.22,0,0,0-1.24.13.85.85,0,0,1-.87,0,.87.87,0,0,1-.43-.75v-5a.87.87,0,0,1,1.74,0v3.83a2.62,2.62,0,0,1,1.67.32c1.17.68,1.85,2.24,1.85,4.28,0,3.32-1.74,6.92-4,8.2A3.4,3.4,0,0,1,323.51,182.18Z" style="fill:#f0f0f0"></path><polygon points="449.26 115.2 465.82 105.63 449.26 96.07 432.69 105.63 449.26 115.2" style="fill:#f0f0f0"></polygon><polygon points="465.82 105.63 449.26 115.2 449.26 147.08 465.82 137.51 465.82 105.63" style="fill:#e6e6e6"></polygon><polygon points="432.69 105.63 432.69 137.51 449.26 147.08 449.26 115.2 432.69 105.63" style="fill:#e0e0e0"></polygon><polygon points="463.06 110.56 452.02 116.94 452.02 132.71 463.06 126.33 463.06 110.56" style="fill:#e0e0e0"></polygon><polygon points="435.45 110.56 446.5 116.94 446.5 132.71 435.45 126.33 435.45 110.56" style="opacity:0.1"></polygon><path d="M427.92,164.8l-13.66-7.88a.44.44,0,0,1-.21-.37V140.77a.42.42,0,0,1,.21-.36.45.45,0,0,1,.42,0l13.67,7.89a.41.41,0,0,1,.21.36v15.78a.41.41,0,0,1-.21.36.42.42,0,0,1-.21.06A.43.43,0,0,1,427.92,164.8Zm-13-23.3v14.81l12.82,7.4v-14.8Z" style="fill:#e0e0e0"></path><path d="M428.14,164.86a.42.42,0,0,0,.21-.06.41.41,0,0,0,.15-.57l-13.66-23.67a.43.43,0,0,0-.58-.15.41.41,0,0,0-.15.57l13.66,23.67A.42.42,0,0,0,428.14,164.86Z" style="fill:#e0e0e0"></path><path d="M414.47,157a.54.54,0,0,0,.21-.05L428.35,149a.42.42,0,0,0-.43-.73l-13.66,7.89a.41.41,0,0,0-.15.57A.4.4,0,0,0,414.47,157Z" style="fill:#e0e0e0"></path><path d="M427.92,180.58l-13.66-7.89a.41.41,0,0,1-.21-.36V156.55a.41.41,0,0,1,.21-.36.4.4,0,0,1,.42,0l13.67,7.89a.41.41,0,0,1,.21.36v15.78a.41.41,0,0,1-.21.36.42.42,0,0,1-.21.06A.43.43,0,0,1,427.92,180.58Zm-13-23.3v14.81l12.82,7.4V164.68Z" style="fill:#e0e0e0"></path><path d="M428.14,180.64a.42.42,0,0,0,.21-.06.41.41,0,0,0,.15-.57l-13.66-23.67a.42.42,0,0,0-.58-.15.41.41,0,0,0-.15.57l13.66,23.67A.44.44,0,0,0,428.14,180.64Z" style="fill:#e0e0e0"></path><path d="M414.47,172.75a.42.42,0,0,0,.21-.06l13.67-7.89a.41.41,0,0,0,.15-.57.42.42,0,0,0-.58-.15L414.26,172a.41.41,0,0,0-.15.57A.42.42,0,0,0,414.47,172.75Z" style="fill:#e0e0e0"></path><path d="M427.92,196.36l-13.66-7.89a.41.41,0,0,1-.21-.36V172.33a.41.41,0,0,1,.21-.36.4.4,0,0,1,.42,0l13.67,7.88a.44.44,0,0,1,.21.37V196a.41.41,0,0,1-.21.36.42.42,0,0,1-.21.06A.43.43,0,0,1,427.92,196.36Zm-13-23.3v14.8l12.82,7.41V180.46Z" style="fill:#e0e0e0"></path><path d="M428.14,196.42a.42.42,0,0,0,.21-.06.41.41,0,0,0,.15-.57l-13.66-23.67a.42.42,0,0,0-.58-.15.41.41,0,0,0-.15.57l13.66,23.67A.44.44,0,0,0,428.14,196.42Z" style="fill:#e0e0e0"></path><path d="M414.47,188.53a.42.42,0,0,0,.21-.06l13.67-7.89a.41.41,0,0,0,.15-.57.43.43,0,0,0-.58-.16l-13.66,7.89a.42.42,0,0,0-.15.58A.42.42,0,0,0,414.47,188.53Z" style="fill:#e0e0e0"></path><path d="M427.92,212.14l-13.66-7.89a.42.42,0,0,1-.21-.36V188.11a.44.44,0,0,1,.21-.37.45.45,0,0,1,.42,0l13.67,7.89a.44.44,0,0,1,.21.37v15.78a.43.43,0,0,1-.42.42A.43.43,0,0,1,427.92,212.14Zm-13-23.3v14.8l12.82,7.41V196.24Z" style="fill:#e0e0e0"></path><path d="M428.14,212.2a.43.43,0,0,0,.36-.64L414.84,187.9a.44.44,0,0,0-.58-.16.42.42,0,0,0-.15.58L427.77,212A.44.44,0,0,0,428.14,212.2Z" style="fill:#e0e0e0"></path><path d="M414.47,204.31a.42.42,0,0,0,.21-.06l13.67-7.89a.41.41,0,0,0,.15-.57.43.43,0,0,0-.58-.16l-13.66,7.89a.42.42,0,0,0,.21.79Z" style="fill:#e0e0e0"></path><path d="M427.92,227.92,414.26,220a.44.44,0,0,1-.21-.37V203.89a.42.42,0,0,1,.21-.37.45.45,0,0,1,.42,0l13.67,7.89a.41.41,0,0,1,.21.36v15.78a.44.44,0,0,1-.21.37.54.54,0,0,1-.21.05A.54.54,0,0,1,427.92,227.92Zm-13-23.31v14.81l12.82,7.4V212Z" style="fill:#e0e0e0"></path><path d="M428.14,228a.54.54,0,0,0,.21-.05.42.42,0,0,0,.15-.58l-13.66-23.67a.43.43,0,0,0-.58-.15.42.42,0,0,0-.15.58l13.66,23.66A.42.42,0,0,0,428.14,228Z" style="fill:#e0e0e0"></path><path d="M414.47,220.08a.54.54,0,0,0,.21-.05l13.67-7.89a.42.42,0,0,0,.15-.58.43.43,0,0,0-.58-.15l-13.66,7.89a.41.41,0,0,0-.15.57A.4.4,0,0,0,414.47,220.08Z" style="fill:#e0e0e0"></path><path d="M427.92,243.69l-13.66-7.88a.44.44,0,0,1-.21-.37V219.66a.41.41,0,0,1,.21-.36.4.4,0,0,1,.42,0l13.67,7.89a.41.41,0,0,1,.21.36v15.78a.41.41,0,0,1-.21.36.42.42,0,0,1-.21.06A.43.43,0,0,1,427.92,243.69Zm-13-23.3V235.2l12.82,7.4V227.79Z" style="fill:#e0e0e0"></path><path d="M428.14,243.75a.42.42,0,0,0,.21-.06.41.41,0,0,0,.15-.57l-13.66-23.67a.42.42,0,0,0-.58-.15.41.41,0,0,0-.15.57l13.66,23.67A.42.42,0,0,0,428.14,243.75Z" style="fill:#e0e0e0"></path><path d="M414.47,235.86a.54.54,0,0,0,.21-.05l13.67-7.89a.42.42,0,1,0-.43-.73l-13.66,7.89a.41.41,0,0,0-.15.57A.4.4,0,0,0,414.47,235.86Z" style="fill:#e0e0e0"></path><path d="M427.92,259.47l-13.66-7.89a.41.41,0,0,1-.21-.36V235.44a.41.41,0,0,1,.21-.36.4.4,0,0,1,.42,0L428.35,243a.41.41,0,0,1,.21.36v15.78a.41.41,0,0,1-.21.36.42.42,0,0,1-.21.06A.43.43,0,0,1,427.92,259.47Zm-13-23.3V251l12.82,7.4V243.57Z" style="fill:#e0e0e0"></path><path d="M428.14,259.53a.42.42,0,0,0,.21-.06.41.41,0,0,0,.15-.57l-13.66-23.67a.42.42,0,0,0-.58-.15.41.41,0,0,0-.15.57l13.66,23.67A.44.44,0,0,0,428.14,259.53Z" style="fill:#e0e0e0"></path><path d="M414.47,251.64a.42.42,0,0,0,.21-.06l13.67-7.89a.41.41,0,0,0,.15-.57.42.42,0,0,0-.58-.15l-13.66,7.89a.41.41,0,0,0-.15.57A.42.42,0,0,0,414.47,251.64Z" style="fill:#e0e0e0"></path><path d="M427.92,275.25l-13.66-7.89a.41.41,0,0,1-.21-.36V251.22a.41.41,0,0,1,.21-.36.4.4,0,0,1,.42,0l13.67,7.88a.44.44,0,0,1,.21.37v15.78a.43.43,0,0,1-.42.42A.43.43,0,0,1,427.92,275.25Zm-13-23.3v14.8l12.82,7.41V259.35Z" style="fill:#e0e0e0"></path><path d="M428.14,275.31a.42.42,0,0,0,.21-.06.41.41,0,0,0,.15-.57L414.84,251a.42.42,0,0,0-.58-.15.41.41,0,0,0-.15.57l13.66,23.67A.44.44,0,0,0,428.14,275.31Z" style="fill:#e0e0e0"></path><path d="M414.47,267.42a.42.42,0,0,0,.21-.06l13.67-7.89a.41.41,0,0,0,.15-.57.43.43,0,0,0-.58-.16l-13.66,7.89a.42.42,0,0,0-.15.58A.42.42,0,0,0,414.47,267.42Z" style="fill:#e0e0e0"></path><path d="M427.92,164.8a.41.41,0,0,1-.21-.36V148.66a.41.41,0,0,1,.21-.36l13.67-7.89a.45.45,0,0,1,.42,0,.42.42,0,0,1,.21.36v15.78a.44.44,0,0,1-.21.37l-13.66,7.88a.42.42,0,0,1-.21.06A.43.43,0,0,1,427.92,164.8Zm13.46-23.3-12.82,7.41v14.8l12.82-7.4Z" style="fill:#e0e0e0"></path><path d="M428.14,164.86a.41.41,0,0,0,.36-.21L442.16,141a.41.41,0,0,0-.15-.57.42.42,0,0,0-.57.15l-13.67,23.67a.41.41,0,0,0,.15.57A.43.43,0,0,0,428.14,164.86Z" style="fill:#e0e0e0"></path><path d="M441.8,157a.4.4,0,0,0,.36-.21.41.41,0,0,0-.15-.57l-13.66-7.89a.42.42,0,0,0-.43.73l13.67,7.89A.54.54,0,0,0,441.8,157Z" style="fill:#e0e0e0"></path><path d="M427.92,180.58a.41.41,0,0,1-.21-.36V164.44a.41.41,0,0,1,.21-.36l13.67-7.89a.4.4,0,0,1,.42,0,.41.41,0,0,1,.21.36v15.78a.41.41,0,0,1-.21.36l-13.66,7.89a.42.42,0,0,1-.21.06A.43.43,0,0,1,427.92,180.58Zm13.46-23.3-12.82,7.4v14.81l12.82-7.4Z" style="fill:#e0e0e0"></path><path d="M428.14,180.64a.43.43,0,0,0,.36-.21l13.66-23.67a.42.42,0,0,0-.72-.42L427.77,180a.41.41,0,0,0,.15.57A.43.43,0,0,0,428.14,180.64Z" style="fill:#e0e0e0"></path><path d="M441.8,172.75a.42.42,0,0,0,.36-.21A.41.41,0,0,0,442,172l-13.66-7.89a.42.42,0,0,0-.58.15.41.41,0,0,0,.15.57l13.67,7.89A.42.42,0,0,0,441.8,172.75Z" style="fill:#e0e0e0"></path><path d="M427.92,196.36a.41.41,0,0,1-.21-.36V180.22a.44.44,0,0,1,.21-.37L441.59,172a.4.4,0,0,1,.42,0,.41.41,0,0,1,.21.36v15.78a.41.41,0,0,1-.21.36l-13.66,7.89a.42.42,0,0,1-.21.06A.43.43,0,0,1,427.92,196.36Zm13.46-23.3-12.82,7.4v14.81l12.82-7.41Z" style="fill:#e0e0e0"></path><path d="M428.14,196.42a.43.43,0,0,0,.36-.21l13.66-23.67a.42.42,0,0,0-.72-.42l-13.67,23.67a.41.41,0,0,0,.15.57A.43.43,0,0,0,428.14,196.42Z" style="fill:#e0e0e0"></path><path d="M441.8,188.53a.42.42,0,0,0,.36-.21.42.42,0,0,0-.15-.58l-13.66-7.89a.43.43,0,0,0-.58.16.41.41,0,0,0,.15.57l13.67,7.89A.42.42,0,0,0,441.8,188.53Z" style="fill:#e0e0e0"></path><path d="M427.92,212.14a.42.42,0,0,1-.21-.36V196a.44.44,0,0,1,.21-.37l13.67-7.89a.45.45,0,0,1,.42,0,.44.44,0,0,1,.21.37v15.78a.42.42,0,0,1-.21.36l-13.66,7.89a.42.42,0,0,1-.21.06A.43.43,0,0,1,427.92,212.14Zm13.46-23.3-12.82,7.4v14.81l12.82-7.41Z" style="fill:#e0e0e0"></path><path d="M428.14,212.2a.43.43,0,0,0,.36-.21l13.66-23.67a.42.42,0,1,0-.72-.42l-13.67,23.66a.42.42,0,0,0,.15.58A.43.43,0,0,0,428.14,212.2Z" style="fill:#e0e0e0"></path><path d="M441.8,204.31a.42.42,0,0,0,.21-.79l-13.66-7.89a.43.43,0,0,0-.58.16.41.41,0,0,0,.15.57l13.67,7.89A.42.42,0,0,0,441.8,204.31Z" style="fill:#e0e0e0"></path><path d="M427.92,227.92a.44.44,0,0,1-.21-.37V211.77a.41.41,0,0,1,.21-.36l13.67-7.89a.45.45,0,0,1,.42,0,.42.42,0,0,1,.21.37v15.77a.44.44,0,0,1-.21.37l-13.66,7.89a.54.54,0,0,1-.21.05A.54.54,0,0,1,427.92,227.92Zm13.46-23.31L428.56,212v14.8l12.82-7.4Z" style="fill:#e0e0e0"></path><path d="M428.14,228a.41.41,0,0,0,.36-.21l13.66-23.66a.42.42,0,1,0-.72-.43l-13.67,23.67a.42.42,0,0,0,.15.58A.54.54,0,0,0,428.14,228Z" style="fill:#e0e0e0"></path><path d="M441.8,220.08a.4.4,0,0,0,.36-.21.41.41,0,0,0-.15-.57l-13.66-7.89a.43.43,0,0,0-.58.15.42.42,0,0,0,.15.58L441.59,220A.54.54,0,0,0,441.8,220.08Z" style="fill:#e0e0e0"></path><path d="M427.92,243.69a.41.41,0,0,1-.21-.36V227.55a.41.41,0,0,1,.21-.36l13.67-7.89a.4.4,0,0,1,.42,0,.41.41,0,0,1,.21.36v15.78a.44.44,0,0,1-.21.37l-13.66,7.88a.42.42,0,0,1-.21.06A.43.43,0,0,1,427.92,243.69Zm13.46-23.3-12.82,7.4V242.6l12.82-7.4Z" style="fill:#e0e0e0"></path><path d="M428.14,243.75a.41.41,0,0,0,.36-.21l13.66-23.67a.42.42,0,0,0-.72-.42l-13.67,23.67a.41.41,0,0,0,.15.57A.43.43,0,0,0,428.14,243.75Z" style="fill:#e0e0e0"></path><path d="M441.8,235.86a.4.4,0,0,0,.36-.21.41.41,0,0,0-.15-.57l-13.66-7.89a.42.42,0,0,0-.43.73l13.67,7.89A.54.54,0,0,0,441.8,235.86Z" style="fill:#e0e0e0"></path><path d="M427.92,259.47a.41.41,0,0,1-.21-.36V243.33a.41.41,0,0,1,.21-.36l13.67-7.89a.4.4,0,0,1,.42,0,.41.41,0,0,1,.21.36v15.78a.41.41,0,0,1-.21.36l-13.66,7.89a.42.42,0,0,1-.21.06A.43.43,0,0,1,427.92,259.47Zm13.46-23.3-12.82,7.4v14.81l12.82-7.4Z" style="fill:#e0e0e0"></path><path d="M428.14,259.53a.43.43,0,0,0,.36-.21l13.66-23.67a.42.42,0,0,0-.72-.42L427.77,258.9a.41.41,0,0,0,.15.57A.43.43,0,0,0,428.14,259.53Z" style="fill:#e0e0e0"></path><path d="M441.8,251.64a.42.42,0,0,0,.36-.21.41.41,0,0,0-.15-.57L428.35,243a.42.42,0,0,0-.58.15.41.41,0,0,0,.15.57l13.67,7.89A.42.42,0,0,0,441.8,251.64Z" style="fill:#e0e0e0"></path><path d="M427.92,275.25a.42.42,0,0,1-.21-.36V259.11a.44.44,0,0,1,.21-.37l13.67-7.88a.4.4,0,0,1,.42,0,.41.41,0,0,1,.21.36V267a.41.41,0,0,1-.21.36l-13.66,7.89a.42.42,0,0,1-.21.06A.43.43,0,0,1,427.92,275.25ZM441.38,252l-12.82,7.4v14.81l12.82-7.41Z" style="fill:#e0e0e0"></path><path d="M428.14,275.31a.43.43,0,0,0,.36-.21l13.66-23.67a.42.42,0,0,0-.72-.42l-13.67,23.67a.41.41,0,0,0,.15.57A.43.43,0,0,0,428.14,275.31Z" style="fill:#e0e0e0"></path><path d="M441.8,267.42a.42.42,0,0,0,.36-.21.42.42,0,0,0-.15-.58l-13.66-7.89a.43.43,0,0,0-.58.16.41.41,0,0,0,.15.57l13.67,7.89A.42.42,0,0,0,441.8,267.42Z" style="fill:#e0e0e0"></path><path d="M427.92,291l-13.66-7.89a.41.41,0,0,1-.21-.36V267a.41.41,0,0,1,.21-.36.4.4,0,0,1,.42,0l13.67,7.89a.41.41,0,0,1,.21.36v15.78a.41.41,0,0,1-.21.36.42.42,0,0,1-.21.06A.43.43,0,0,1,427.92,291Zm-13-23.3v14.81l12.82,7.4V275.13Z" style="fill:#e0e0e0"></path><path d="M428.14,291.09a.42.42,0,0,0,.21-.06.41.41,0,0,0,.15-.57l-13.66-23.67a.42.42,0,0,0-.58-.15.41.41,0,0,0-.15.57l13.66,23.67A.44.44,0,0,0,428.14,291.09Z" style="fill:#e0e0e0"></path><path d="M414.47,283.2a.42.42,0,0,0,.21-.06l13.67-7.89a.41.41,0,0,0,.15-.57.42.42,0,0,0-.58-.15l-13.66,7.88a.42.42,0,0,0-.15.58A.42.42,0,0,0,414.47,283.2Z" style="fill:#e0e0e0"></path><path d="M427.92,306.81l-13.66-7.89a.42.42,0,0,1-.21-.36V282.78a.44.44,0,0,1,.21-.37.45.45,0,0,1,.42,0l13.67,7.89a.44.44,0,0,1,.21.37v15.77a.42.42,0,0,1-.64.37Zm-13-23.3v14.8l12.82,7.41V290.91Z" style="fill:#e0e0e0"></path><path d="M428.14,306.87a.43.43,0,0,0,.36-.64l-13.66-23.66a.44.44,0,0,0-.58-.16.42.42,0,0,0-.15.58l13.66,23.66A.42.42,0,0,0,428.14,306.87Z" style="fill:#e0e0e0"></path><path d="M414.47,299a.42.42,0,0,0,.21-.06L428.35,291a.41.41,0,0,0,.15-.57.43.43,0,0,0-.58-.16l-13.66,7.89a.42.42,0,0,0-.15.58A.42.42,0,0,0,414.47,299Z" style="fill:#e0e0e0"></path><path d="M427.92,322.59l-13.66-7.89a.44.44,0,0,1-.21-.37V298.56a.44.44,0,0,1,.21-.37.45.45,0,0,1,.42,0l13.67,7.89a.42.42,0,0,1,.21.36v15.78a.44.44,0,0,1-.21.37.54.54,0,0,1-.21.05A.54.54,0,0,1,427.92,322.59Zm-13-23.31v14.81l12.82,7.4v-14.8Z" style="fill:#e0e0e0"></path><path d="M428.14,322.64a.54.54,0,0,0,.21-.05.42.42,0,0,0,.15-.58l-13.66-23.66a.42.42,0,1,0-.73.42l13.66,23.66A.42.42,0,0,0,428.14,322.64Z" style="fill:#e0e0e0"></path><path d="M414.47,314.75a.41.41,0,0,0,.21-.05l13.67-7.89a.42.42,0,0,0,.15-.58.43.43,0,0,0-.58-.15L414.26,314a.41.41,0,0,0-.15.57A.4.4,0,0,0,414.47,314.75Z" style="fill:#e0e0e0"></path><path d="M427.92,338.36l-13.66-7.89a.41.41,0,0,1-.21-.36V314.33a.41.41,0,0,1,.21-.36.4.4,0,0,1,.42,0l13.67,7.89a.41.41,0,0,1,.21.36V338a.41.41,0,0,1-.21.36.42.42,0,0,1-.21.06A.43.43,0,0,1,427.92,338.36Zm-13-23.3v14.81l12.82,7.4v-14.8Z" style="fill:#e0e0e0"></path><path d="M428.14,338.42a.42.42,0,0,0,.21-.06.41.41,0,0,0,.15-.57l-13.66-23.67a.42.42,0,0,0-.58-.15.41.41,0,0,0-.15.57l13.66,23.67A.42.42,0,0,0,428.14,338.42Z" style="fill:#e0e0e0"></path><path d="M414.47,330.53a.42.42,0,0,0,.21-.06l13.67-7.88a.42.42,0,0,0-.43-.73l-13.66,7.89a.41.41,0,0,0-.15.57A.4.4,0,0,0,414.47,330.53Z" style="fill:#e0e0e0"></path><path d="M427.92,291a.41.41,0,0,1-.21-.36V274.89a.41.41,0,0,1,.21-.36l13.67-7.89a.4.4,0,0,1,.42,0,.41.41,0,0,1,.21.36v15.78a.41.41,0,0,1-.21.36L428.35,291a.42.42,0,0,1-.21.06A.43.43,0,0,1,427.92,291Zm13.46-23.3-12.82,7.4v14.81l12.82-7.4Z" style="fill:#e0e0e0"></path><path d="M428.14,291.09a.43.43,0,0,0,.36-.21l13.66-23.67a.42.42,0,0,0-.72-.42l-13.67,23.67a.41.41,0,0,0,.15.57A.43.43,0,0,0,428.14,291.09Z" style="fill:#e0e0e0"></path><path d="M441.8,283.2a.42.42,0,0,0,.36-.21.42.42,0,0,0-.15-.58l-13.66-7.88a.42.42,0,0,0-.58.15.41.41,0,0,0,.15.57l13.67,7.89A.42.42,0,0,0,441.8,283.2Z" style="fill:#e0e0e0"></path><path d="M427.92,306.81a.42.42,0,0,1-.21-.37V290.67a.44.44,0,0,1,.21-.37l13.67-7.89a.45.45,0,0,1,.42,0,.44.44,0,0,1,.21.37v15.78a.42.42,0,0,1-.21.36l-13.66,7.89a.42.42,0,0,1-.21.06A.43.43,0,0,1,427.92,306.81Zm13.46-23.3-12.82,7.4v14.81l12.82-7.41Z" style="fill:#e0e0e0"></path><path d="M428.14,306.87a.42.42,0,0,0,.36-.22L442.16,283a.42.42,0,1,0-.72-.42l-13.67,23.66a.42.42,0,0,0,.15.58A.43.43,0,0,0,428.14,306.87Z" style="fill:#e0e0e0"></path><path d="M441.8,299a.42.42,0,0,0,.36-.21.42.42,0,0,0-.15-.58l-13.66-7.89a.43.43,0,0,0-.58.16.41.41,0,0,0,.15.57l13.67,7.89A.42.42,0,0,0,441.8,299Z" style="fill:#e0e0e0"></path><path d="M427.92,322.59a.44.44,0,0,1-.21-.37V306.44a.42.42,0,0,1,.21-.36l13.67-7.89a.45.45,0,0,1,.42,0,.44.44,0,0,1,.21.37v15.77a.44.44,0,0,1-.21.37l-13.66,7.89a.54.54,0,0,1-.21.05A.54.54,0,0,1,427.92,322.59Zm13.46-23.31-12.82,7.41v14.8l12.82-7.4Z" style="fill:#e0e0e0"></path><path d="M428.14,322.64a.41.41,0,0,0,.36-.21l13.66-23.66a.42.42,0,0,0-.15-.58.41.41,0,0,0-.57.16L427.77,322a.42.42,0,0,0,.15.58A.54.54,0,0,0,428.14,322.64Z" style="fill:#e0e0e0"></path><path d="M441.8,314.75a.4.4,0,0,0,.36-.21A.41.41,0,0,0,442,314l-13.66-7.89a.43.43,0,0,0-.58.15.42.42,0,0,0,.15.58l13.67,7.89A.41.41,0,0,0,441.8,314.75Z" style="fill:#e0e0e0"></path><path d="M427.92,338.36a.41.41,0,0,1-.21-.36V322.22a.41.41,0,0,1,.21-.36L441.59,314a.4.4,0,0,1,.42,0,.41.41,0,0,1,.21.36v15.78a.41.41,0,0,1-.21.36l-13.66,7.89a.42.42,0,0,1-.21.06A.43.43,0,0,1,427.92,338.36Zm13.46-23.3-12.82,7.41v14.8l12.82-7.4Z" style="fill:#e0e0e0"></path><path d="M428.14,338.42a.41.41,0,0,0,.36-.21l13.66-23.67a.42.42,0,0,0-.72-.42l-13.67,23.67a.41.41,0,0,0,.15.57A.43.43,0,0,0,428.14,338.42Z" style="fill:#e0e0e0"></path><path d="M441.8,330.53a.4.4,0,0,0,.36-.21.41.41,0,0,0-.15-.57l-13.66-7.89a.42.42,0,0,0-.43.73l13.67,7.88A.42.42,0,0,0,441.8,330.53Z" style="fill:#e0e0e0"></path><path d="M427.92,354.14l-13.66-7.89a.41.41,0,0,1-.21-.36V330.11a.41.41,0,0,1,.21-.36.4.4,0,0,1,.42,0l13.67,7.88a.44.44,0,0,1,.21.37v15.78a.41.41,0,0,1-.21.36.42.42,0,0,1-.21.06A.43.43,0,0,1,427.92,354.14Zm-13-23.3v14.8l12.82,7.41V338.24Z" style="fill:#e0e0e0"></path><path d="M428.14,354.2a.42.42,0,0,0,.21-.06.41.41,0,0,0,.15-.57L414.84,329.9a.42.42,0,0,0-.58-.15.41.41,0,0,0-.15.57L427.77,354A.44.44,0,0,0,428.14,354.2Z" style="fill:#e0e0e0"></path><path d="M414.47,346.31a.42.42,0,0,0,.21-.06l13.67-7.89a.41.41,0,0,0,.15-.57.43.43,0,0,0-.58-.16l-13.66,7.89a.42.42,0,0,0-.15.58A.42.42,0,0,0,414.47,346.31Z" style="fill:#e0e0e0"></path><path d="M427.92,369.92,414.26,362a.42.42,0,0,1-.21-.37V345.89a.44.44,0,0,1,.21-.37.45.45,0,0,1,.42,0l13.67,7.89a.44.44,0,0,1,.21.37v15.77a.44.44,0,0,1-.21.37.41.41,0,0,1-.21.05A.42.42,0,0,1,427.92,369.92Zm-13-23.3v14.8l12.82,7.4V354Z" style="fill:#e0e0e0"></path><path d="M428.14,370a.41.41,0,0,0,.21-.05.42.42,0,0,0,.15-.58l-13.66-23.66a.44.44,0,0,0-.58-.16.42.42,0,0,0-.15.58l13.66,23.66A.42.42,0,0,0,428.14,370Z" style="fill:#e0e0e0"></path><path d="M414.47,362.09a.42.42,0,0,0,.21-.06l13.67-7.89a.41.41,0,0,0,.15-.57.43.43,0,0,0-.58-.16l-13.66,7.89a.42.42,0,0,0,.21.79Z" style="fill:#e0e0e0"></path><path d="M427.92,354.14a.41.41,0,0,1-.21-.36V338a.44.44,0,0,1,.21-.37l13.67-7.88a.4.4,0,0,1,.42,0,.41.41,0,0,1,.21.36v15.78a.41.41,0,0,1-.21.36l-13.66,7.89a.42.42,0,0,1-.21.06A.43.43,0,0,1,427.92,354.14Zm13.46-23.3-12.82,7.4v14.81l12.82-7.41Z" style="fill:#e0e0e0"></path><path d="M428.14,354.2a.43.43,0,0,0,.36-.21l13.66-23.67a.42.42,0,0,0-.72-.42l-13.67,23.67a.41.41,0,0,0,.15.57A.43.43,0,0,0,428.14,354.2Z" style="fill:#e0e0e0"></path><path d="M441.8,346.31a.42.42,0,0,0,.36-.21.42.42,0,0,0-.15-.58l-13.66-7.89a.43.43,0,0,0-.58.16.41.41,0,0,0,.15.57l13.67,7.89A.42.42,0,0,0,441.8,346.31Z" style="fill:#e0e0e0"></path><path d="M427.92,369.92a.44.44,0,0,1-.21-.37V353.78a.44.44,0,0,1,.21-.37l13.67-7.89a.45.45,0,0,1,.42,0,.44.44,0,0,1,.21.37v15.77a.42.42,0,0,1-.21.37l-13.66,7.89a.41.41,0,0,1-.21.05A.42.42,0,0,1,427.92,369.92Zm13.46-23.3L428.56,354v14.8l12.82-7.4Z" style="fill:#e0e0e0"></path><path d="M428.14,370a.41.41,0,0,0,.36-.21l13.66-23.66a.42.42,0,1,0-.72-.42l-13.67,23.66a.42.42,0,0,0,.15.58A.42.42,0,0,0,428.14,370Z" style="fill:#e0e0e0"></path><path d="M441.8,362.09a.42.42,0,0,0,.21-.79l-13.66-7.89a.43.43,0,0,0-.58.16.41.41,0,0,0,.15.57L441.59,362A.42.42,0,0,0,441.8,362.09Z" style="fill:#e0e0e0"></path><polygon points="428.13 148.66 450.91 135.51 428.14 122.37 405.36 135.51 428.13 148.66" style="fill:#e6e6e6"></polygon><polygon points="450.91 135.51 428.13 148.66 428.13 153.92 450.91 140.77 450.91 135.51" style="fill:#f0f0f0"></polygon><polygon points="405.36 135.51 405.36 140.78 428.13 153.92 428.13 148.66 405.36 135.51" style="fill:#e0e0e0"></polygon><path d="M427.92,112.21l-13.66-7.89a.41.41,0,0,1-.21-.36V88.18a.41.41,0,0,1,.21-.36.4.4,0,0,1,.42,0l13.67,7.89a.41.41,0,0,1,.21.36v15.78a.41.41,0,0,1-.21.36.42.42,0,0,1-.21.06A.43.43,0,0,1,427.92,112.21Zm-13-23.3v14.81l12.82,7.4V96.31Z" style="fill:#e0e0e0"></path><path d="M428.14,112.27a.42.42,0,0,0,.21-.06.41.41,0,0,0,.15-.57L414.84,88a.42.42,0,0,0-.58-.15.41.41,0,0,0-.15.57l13.66,23.67A.44.44,0,0,0,428.14,112.27Z" style="fill:#e0e0e0"></path><path d="M414.47,104.38a.39.39,0,0,0,.21-.06l13.67-7.89a.41.41,0,0,0,.15-.57.42.42,0,0,0-.58-.15l-13.66,7.89a.41.41,0,0,0-.15.57A.43.43,0,0,0,414.47,104.38Z" style="fill:#e0e0e0"></path><path d="M427.92,128l-13.66-7.89a.41.41,0,0,1-.21-.36V104a.41.41,0,0,1,.21-.36.4.4,0,0,1,.42,0l13.67,7.88a.44.44,0,0,1,.21.37v15.78a.41.41,0,0,1-.21.36.42.42,0,0,1-.21.06A.43.43,0,0,1,427.92,128Zm-13-23.3v14.8l12.82,7.41V112.09Z" style="fill:#e0e0e0"></path><path d="M428.14,128.05a.42.42,0,0,0,.21-.06.41.41,0,0,0,.15-.57l-13.66-23.67a.42.42,0,0,0-.58-.15.41.41,0,0,0-.15.57l13.66,23.67A.44.44,0,0,0,428.14,128.05Z" style="fill:#e0e0e0"></path><path d="M414.47,120.16a.39.39,0,0,0,.21-.06l13.67-7.89a.41.41,0,0,0,.15-.57.43.43,0,0,0-.58-.16l-13.66,7.89a.42.42,0,0,0-.15.58A.43.43,0,0,0,414.47,120.16Z" style="fill:#e0e0e0"></path><path d="M427.92,143.77l-13.66-7.89a.42.42,0,0,1-.21-.36V119.74a.44.44,0,0,1,.21-.37.45.45,0,0,1,.42,0l13.67,7.89a.44.44,0,0,1,.21.37V143.4a.44.44,0,0,1-.21.37.41.41,0,0,1-.21,0A.42.42,0,0,1,427.92,143.77Zm-13-23.3v14.8l12.82,7.4v-14.8Z" style="fill:#e0e0e0"></path><path d="M428.14,143.82a.41.41,0,0,0,.21,0,.42.42,0,0,0,.15-.58l-13.66-23.66a.44.44,0,0,0-.58-.16.42.42,0,0,0-.15.58l13.66,23.66A.42.42,0,0,0,428.14,143.82Z" style="fill:#e0e0e0"></path><path d="M414.47,135.94a.39.39,0,0,0,.21-.06L428.35,128a.41.41,0,0,0,.15-.57.43.43,0,0,0-.58-.16l-13.66,7.89a.42.42,0,0,0-.15.58A.43.43,0,0,0,414.47,135.94Z" style="fill:#e0e0e0"></path><path d="M427.92,112.21a.41.41,0,0,1-.21-.36V96.07a.41.41,0,0,1,.21-.36l13.67-7.89a.4.4,0,0,1,.42,0,.41.41,0,0,1,.21.36V104a.41.41,0,0,1-.21.36l-13.66,7.89a.42.42,0,0,1-.21.06A.43.43,0,0,1,427.92,112.21Zm13.46-23.3-12.82,7.4v14.81l12.82-7.4Z" style="fill:#e0e0e0"></path><path d="M428.14,112.27a.43.43,0,0,0,.36-.21l13.66-23.67a.42.42,0,1,0-.72-.42l-13.67,23.67a.41.41,0,0,0,.15.57A.43.43,0,0,0,428.14,112.27Z" style="fill:#e0e0e0"></path><path d="M441.8,104.38a.42.42,0,0,0,.36-.21.41.41,0,0,0-.15-.57l-13.66-7.89a.42.42,0,0,0-.58.15.41.41,0,0,0,.15.57l13.67,7.89A.42.42,0,0,0,441.8,104.38Z" style="fill:#e0e0e0"></path><path d="M427.92,128a.41.41,0,0,1-.21-.36V111.85a.44.44,0,0,1,.21-.37l13.67-7.88a.4.4,0,0,1,.42,0,.41.41,0,0,1,.21.36v15.78a.41.41,0,0,1-.21.36L428.35,128a.42.42,0,0,1-.21.06A.43.43,0,0,1,427.92,128Zm13.46-23.3-12.82,7.4V126.9l12.82-7.41Z" style="fill:#e0e0e0"></path><path d="M428.14,128.05a.43.43,0,0,0,.36-.21l13.66-23.67a.42.42,0,1,0-.72-.42l-13.67,23.67a.41.41,0,0,0,.15.57A.43.43,0,0,0,428.14,128.05Z" style="fill:#e0e0e0"></path><path d="M441.8,120.16a.42.42,0,0,0,.36-.21.42.42,0,0,0-.15-.58l-13.66-7.89a.43.43,0,0,0-.58.16.41.41,0,0,0,.15.57l13.67,7.89A.42.42,0,0,0,441.8,120.16Z" style="fill:#e0e0e0"></path><path d="M427.92,143.77a.44.44,0,0,1-.21-.37V127.63a.44.44,0,0,1,.21-.37l13.67-7.89a.45.45,0,0,1,.42,0,.44.44,0,0,1,.21.37v15.78a.42.42,0,0,1-.21.36l-13.66,7.89a.41.41,0,0,1-.21,0A.42.42,0,0,1,427.92,143.77Zm13.46-23.3-12.82,7.4v14.8l12.82-7.4Z" style="fill:#e0e0e0"></path><path d="M428.14,143.82a.41.41,0,0,0,.36-.21L442.16,120a.42.42,0,1,0-.72-.42l-13.67,23.66a.42.42,0,0,0,.15.58A.42.42,0,0,0,428.14,143.82Z" style="fill:#e0e0e0"></path><path d="M441.8,135.94a.42.42,0,0,0,.21-.79l-13.66-7.89a.43.43,0,0,0-.58.16.41.41,0,0,0,.15.57l13.67,7.89A.42.42,0,0,0,441.8,135.94Z" style="fill:#e0e0e0"></path><path d="M345.94,143.76a.41.41,0,0,1-.21-.36V127.62a.41.41,0,0,1,.21-.36l13.66-7.89a.42.42,0,0,1,.43,0,.41.41,0,0,1,.21.36v15.78a.41.41,0,0,1-.21.36l-13.66,7.89a.39.39,0,0,1-.21.06A.42.42,0,0,1,345.94,143.76Zm13.45-23.3-12.82,7.4v14.81l12.82-7.4Z" style="fill:#e0e0e0"></path><path d="M346.15,143.82a.41.41,0,0,0,.36-.21l13.67-23.67a.41.41,0,0,0-.15-.57.42.42,0,0,0-.58.15l-13.66,23.67a.41.41,0,0,0,.15.57A.42.42,0,0,0,346.15,143.82Z" style="fill:#e0e0e0"></path><path d="M359.81,135.93a.44.44,0,0,0,.37-.21.41.41,0,0,0-.16-.57l-13.66-7.89a.42.42,0,0,0-.42.72l13.66,7.89A.42.42,0,0,0,359.81,135.93Z" style="fill:#e0e0e0"></path><path d="M359.6,135.87a.41.41,0,0,1-.21-.36V119.73a.41.41,0,0,1,.21-.36l13.67-7.89a.4.4,0,0,1,.42,0,.41.41,0,0,1,.21.36v15.78a.41.41,0,0,1-.21.36L360,135.87a.37.37,0,0,1-.21.06A.42.42,0,0,1,359.6,135.87Zm13.46-23.3L360.23,120v14.81l12.83-7.4Z" style="fill:#e0e0e0"></path><path d="M359.81,135.93a.44.44,0,0,0,.37-.21l13.66-23.67a.41.41,0,0,0-.15-.57.42.42,0,0,0-.58.15L359.45,135.3a.41.41,0,0,0,.15.57A.42.42,0,0,0,359.81,135.93Z" style="fill:#e0e0e0"></path><path d="M373.48,128a.42.42,0,0,0,.21-.78L360,119.37a.41.41,0,0,0-.57.15.42.42,0,0,0,.15.58L373.27,128A.39.39,0,0,0,373.48,128Z" style="fill:#e0e0e0"></path><path d="M373.27,128a.41.41,0,0,1-.21-.36V111.84a.41.41,0,0,1,.21-.36l13.66-7.89a.4.4,0,0,1,.42,0,.41.41,0,0,1,.21.36v15.78a.44.44,0,0,1-.21.37L373.69,128a.42.42,0,0,1-.21.06A.39.39,0,0,1,373.27,128Zm13.45-23.3-12.82,7.41v14.8l12.82-7.4Z" style="fill:#e0e0e0"></path><path d="M373.48,128a.41.41,0,0,0,.36-.21l13.67-23.67a.43.43,0,0,0-.16-.57.41.41,0,0,0-.57.15l-13.67,23.67a.42.42,0,0,0,.16.57A.39.39,0,0,0,373.48,128Z" style="fill:#e0e0e0"></path><path d="M387.14,120.15a.42.42,0,0,0,.37-.21.42.42,0,0,0-.16-.57l-13.66-7.89a.42.42,0,0,0-.58.15.44.44,0,0,0,.16.58l13.66,7.89A.54.54,0,0,0,387.14,120.15Z" style="fill:#e0e0e0"></path><path d="M345.94,128l-13.66-7.88a.44.44,0,0,1-.21-.37.41.41,0,0,1,.21-.36l13.66-7.89a.4.4,0,0,1,.42,0L360,119.37a.41.41,0,0,1,.21.36.44.44,0,0,1-.21.37L346.36,128a.39.39,0,0,1-.21.06A.42.42,0,0,1,345.94,128Zm.21-15.65-12.82,7.4,12.82,7.4,12.82-7.4Z" style="fill:#e0e0e0"></path><path d="M332.49,120.15h27.33a.42.42,0,0,0,0-.84H332.49a.42.42,0,1,0,0,.84Z" style="fill:#e0e0e0"></path><path d="M346.15,128a.42.42,0,0,0,.42-.42V111.84a.42.42,0,1,0-.84,0v15.78A.42.42,0,0,0,346.15,128Z" style="fill:#e0e0e0"></path><path d="M359.6,120.1l-13.66-7.89a.44.44,0,0,1-.21-.37.41.41,0,0,1,.21-.36l13.66-7.89a.4.4,0,0,1,.42,0l13.67,7.89a.41.41,0,0,1,.21.36.44.44,0,0,1-.21.37L360,120.1a.46.46,0,0,1-.21.05A.54.54,0,0,1,359.6,120.1Zm.21-15.66L347,111.84l12.82,7.41,12.83-7.41Z" style="fill:#e0e0e0"></path><path d="M346.15,112.26h27.33a.42.42,0,1,0,0-.84H346.15a.42.42,0,0,0,0,.84Z" style="fill:#e0e0e0"></path><path d="M359.81,120.15a.42.42,0,0,0,.42-.42V104a.42.42,0,0,0-.42-.42.42.42,0,0,0-.42.42v15.78A.42.42,0,0,0,359.81,120.15Z" style="fill:#e0e0e0"></path><path d="M373.27,112.21l-13.67-7.89a.44.44,0,0,1-.21-.37.41.41,0,0,1,.21-.36l13.67-7.89a.45.45,0,0,1,.42,0l13.66,7.89a.41.41,0,0,1,.21.36.44.44,0,0,1-.21.37l-13.66,7.89a.54.54,0,0,1-.21.05A.5.5,0,0,1,373.27,112.21Zm.21-15.66L360.66,104l12.82,7.41L386.3,104Z" style="fill:#e0e0e0"></path><path d="M359.81,104.37h27.33a.42.42,0,0,0,.42-.42.42.42,0,0,0-.42-.42H359.81a.42.42,0,0,0-.42.42A.42.42,0,0,0,359.81,104.37Z" style="fill:#e0e0e0"></path><path d="M373.48,112.26a.42.42,0,0,0,.42-.42V96.07a.42.42,0,1,0-.84,0v15.77A.42.42,0,0,0,373.48,112.26Z" style="fill:#e0e0e0"></path><path d="M332.27,151.66a.44.44,0,0,1-.21-.37V135.52a.42.42,0,0,1,.21-.37l13.67-7.89a.45.45,0,0,1,.42,0,.44.44,0,0,1,.21.37V143.4a.44.44,0,0,1-.21.37l-13.66,7.89a.54.54,0,0,1-.22.05A.54.54,0,0,1,332.27,151.66Zm13.46-23.3-12.82,7.4v14.8l12.82-7.4Z" style="fill:#e0e0e0"></path><path d="M332.48,151.71a.42.42,0,0,0,.37-.21l13.66-23.66a.42.42,0,1,0-.72-.42l-13.67,23.66a.42.42,0,0,0,.15.58A.54.54,0,0,0,332.48,151.71Z" style="fill:#e0e0e0"></path><path d="M346.15,143.82a.4.4,0,0,0,.36-.21.41.41,0,0,0-.15-.57l-13.66-7.89a.43.43,0,0,0-.58.15.42.42,0,0,0,.15.58l13.67,7.89A.41.41,0,0,0,346.15,143.82Z" style="fill:#e0e0e0"></path><path d="M318.61,127.26a.45.45,0,0,1,.42,0l13.67,7.89a.42.42,0,0,1,0,.73m-1.06-.36-12.82-7.41" style="fill:#e0e0e0"></path><path d="M332.48,135.94a.43.43,0,1,0,0-.85" style="fill:#e0e0e0"></path><path d="M319.24,127.63a.42.42,0,1,0-.84,0" style="fill:#e0e0e0"></path><polygon points="332.41 135.72 318.4 127.63 318.4 143.8 332.41 151.89 332.41 135.72" style="fill:#e0e0e0"></polygon><path d="M332.27,135.88,318.61,128a.41.41,0,0,1-.21-.36.44.44,0,0,1,.21-.37l13.66-7.89a.47.47,0,0,1,.43,0l13.66,7.89a.44.44,0,0,1,.21.37.41.41,0,0,1-.21.36l-13.66,7.89a.43.43,0,0,1-.22.06A.42.42,0,0,1,332.27,135.88Zm.21-15.66-12.82,7.41,12.82,7.4,12.83-7.4Z" style="fill:#e0e0e0"></path><path d="M318.82,128.05h27.33a.42.42,0,0,0,.42-.42.42.42,0,0,0-.42-.42H318.82a.42.42,0,0,0-.42.42A.42.42,0,0,0,318.82,128.05Z" style="fill:#e0e0e0"></path><path d="M332.48,135.94a.42.42,0,0,0,.43-.42V119.74a.43.43,0,0,0-.85,0v15.78A.42.42,0,0,0,332.48,135.94Z" style="fill:#e0e0e0"></path><path d="M386.93,120.1a.44.44,0,0,1-.21-.37V104a.41.41,0,0,1,.21-.36L400.6,95.7a.45.45,0,0,1,.42,0,.42.42,0,0,1,.21.37v15.77a.44.44,0,0,1-.21.37l-13.67,7.89a.5.5,0,0,1-.21.05A.54.54,0,0,1,386.93,120.1Zm13.46-23.31-12.83,7.41V119l12.83-7.4Z" style="fill:#e0e0e0"></path><path d="M387.14,120.15a.42.42,0,0,0,.37-.21l13.66-23.66a.42.42,0,0,0-.15-.58.43.43,0,0,0-.58.15l-13.66,23.67a.42.42,0,0,0,.15.58A.54.54,0,0,0,387.14,120.15Z" style="fill:#e0e0e0"></path><path d="M400.81,112.26a.42.42,0,0,0,.21-.78l-13.67-7.89a.41.41,0,0,0-.57.15.42.42,0,0,0,.15.58l13.67,7.89A.46.46,0,0,0,400.81,112.26Z" style="fill:#e0e0e0"></path><path d="M400.6,112.21a.44.44,0,0,1-.21-.37V96.07a.42.42,0,0,1,.21-.37l13.66-7.89a.45.45,0,0,1,.42,0,.44.44,0,0,1,.21.37V104a.44.44,0,0,1-.21.37L401,112.21a.54.54,0,0,1-.21.05A.46.46,0,0,1,400.6,112.21Zm13.45-23.3-12.82,7.4v14.8l12.82-7.4Z" style="fill:#e0e0e0"></path><path d="M400.81,112.26a.41.41,0,0,0,.36-.21l13.66-23.66a.42.42,0,0,0-.15-.58.41.41,0,0,0-.57.16l-13.67,23.66a.44.44,0,0,0,.16.58A.46.46,0,0,0,400.81,112.26Z" style="fill:#e0e0e0"></path><path d="M414.47,104.37a.4.4,0,0,0,.36-.21.41.41,0,0,0-.15-.57L401,95.7a.42.42,0,1,0-.42.73l13.66,7.89A.41.41,0,0,0,414.47,104.37Z" style="fill:#e0e0e0"></path><path d="M414.26,104.32a.44.44,0,0,1-.21-.37V88.18a.44.44,0,0,1,.21-.37l13.66-7.89a.45.45,0,0,1,.42,0,.44.44,0,0,1,.21.37V96.07a.42.42,0,0,1-.21.36l-13.66,7.89a.41.41,0,0,1-.21.05A.38.38,0,0,1,414.26,104.32ZM427.71,81l-12.82,7.4v14.8l12.82-7.4Z" style="fill:#e0e0e0"></path><path d="M414.47,104.37a.4.4,0,0,0,.36-.21L428.5,80.5a.44.44,0,0,0-.16-.58.43.43,0,0,0-.57.16l-13.66,23.66a.42.42,0,0,0,.15.58A.41.41,0,0,0,414.47,104.37Z" style="fill:#e0e0e0"></path><path d="M428.13,96.49a.42.42,0,0,0,.21-.79l-13.66-7.89a.42.42,0,0,0-.42.73l13.66,7.89A.42.42,0,0,0,428.13,96.49Z" style="fill:#e0e0e0"></path><path d="M386.93,104.32l-13.66-7.89a.42.42,0,0,1,0-.73l13.66-7.89a.45.45,0,0,1,.42,0L401,95.7a.42.42,0,0,1,0,.73l-13.67,7.89a.38.38,0,0,1-.21.05A.41.41,0,0,1,386.93,104.32Zm.21-15.66-12.82,7.41,12.82,7.4L400,96.07Z" style="fill:#e0e0e0"></path><path d="M373.48,96.49h27.33a.43.43,0,0,0,0-.85H373.48a.43.43,0,0,0,0,.85Z" style="fill:#e0e0e0"></path><path d="M387.14,104.37a.42.42,0,0,0,.42-.42V88.18a.42.42,0,1,0-.84,0V104A.42.42,0,0,0,387.14,104.37Z" style="fill:#e0e0e0"></path><path d="M400.6,96.43l-13.67-7.89a.41.41,0,0,1-.21-.36.44.44,0,0,1,.21-.37l13.67-7.89a.45.45,0,0,1,.42,0l13.66,7.89a.44.44,0,0,1,.21.37.41.41,0,0,1-.21.36L401,96.43a.42.42,0,0,1-.21.06A.37.37,0,0,1,400.6,96.43Zm.21-15.66L388,88.18l12.83,7.4,12.82-7.4Z" style="fill:#e0e0e0"></path><path d="M387.14,88.6h27.33a.42.42,0,0,0,.42-.42.42.42,0,0,0-.42-.42H387.14a.42.42,0,0,0-.42.42A.42.42,0,0,0,387.14,88.6Z" style="fill:#e0e0e0"></path><path d="M400.81,96.49a.42.42,0,0,0,.42-.42V80.29a.42.42,0,0,0-.42-.42.42.42,0,0,0-.42.42V96.07A.42.42,0,0,0,400.81,96.49Z" style="fill:#e0e0e0"></path><path d="M414.26,88.54,400.6,80.65a.41.41,0,0,1-.21-.36.44.44,0,0,1,.21-.37L414.26,72a.45.45,0,0,1,.42,0l13.66,7.89a.44.44,0,0,1,.21.37.41.41,0,0,1-.21.36l-13.66,7.89a.42.42,0,0,1-.21.06A.39.39,0,0,1,414.26,88.54Zm.21-15.66-12.82,7.41,12.82,7.4,12.82-7.4Z" style="fill:#e0e0e0"></path><path d="M400.81,80.71h27.32a.42.42,0,0,0,0-.84H400.81a.42.42,0,1,0,0,.84Z" style="fill:#e0e0e0"></path><path d="M414.47,88.6a.42.42,0,0,0,.42-.42V72.4a.42.42,0,0,0-.84,0V88.18A.42.42,0,0,0,414.47,88.6Z" style="fill:#e0e0e0"></path><path d="M427.92,96.43a.42.42,0,0,1-.21-.36V80.29a.44.44,0,0,1,.21-.37L441.59,72a.45.45,0,0,1,.42,0,.44.44,0,0,1,.21.37V88.18a.41.41,0,0,1-.21.36l-13.67,7.89a.37.37,0,0,1-.21.06A.42.42,0,0,1,427.92,96.43Zm13.46-23.3-12.83,7.4V95.34l12.83-7.41Z" style="fill:#e0e0e0"></path><path d="M428.13,96.49a.44.44,0,0,0,.37-.21l13.66-23.67A.42.42,0,0,0,442,72a.44.44,0,0,0-.58.16L427.77,95.85a.43.43,0,0,0,.36.64Z" style="fill:#e0e0e0"></path><path d="M441.8,88.6a.43.43,0,0,0,.36-.21.42.42,0,0,0-.15-.58l-13.67-7.89a.43.43,0,0,0-.57.16.41.41,0,0,0,.15.57l13.67,7.89A.39.39,0,0,0,441.8,88.6Z" style="fill:#e0e0e0"></path><path d="M441.59,88.54a.41.41,0,0,1-.21-.36V72.4a.44.44,0,0,1,.21-.37l13.66-7.89a.45.45,0,0,1,.42,0,.44.44,0,0,1,.21.37V80.29a.41.41,0,0,1-.21.36L442,88.54a.42.42,0,0,1-.21.06A.39.39,0,0,1,441.59,88.54ZM455,65.24l-12.82,7.4V87.45L455,80Z" style="fill:#e0e0e0"></path><path d="M441.8,88.6a.43.43,0,0,0,.36-.21l13.67-23.67a.44.44,0,0,0-.16-.58.42.42,0,0,0-.57.16L441.43,88a.43.43,0,0,0,.16.57A.39.39,0,0,0,441.8,88.6Z" style="fill:#e0e0e0"></path><path d="M455.46,80.71a.42.42,0,0,0,.21-.79L442,72a.44.44,0,0,0-.58.16.42.42,0,0,0,.16.57l13.66,7.89A.42.42,0,0,0,455.46,80.71Z" style="fill:#e0e0e0"></path><path d="M455.25,80.65a.41.41,0,0,1-.21-.36V64.51a.44.44,0,0,1,.21-.37l13.67-7.88a.4.4,0,0,1,.42,0,.41.41,0,0,1,.21.36V72.4a.41.41,0,0,1-.21.36l-13.67,7.89a.39.39,0,0,1-.21.06A.42.42,0,0,1,455.25,80.65Zm13.46-23.3-12.83,7.4V79.56l12.83-7.41Z" style="fill:#e0e0e0"></path><path d="M455.46,80.71a.44.44,0,0,0,.37-.21l13.66-23.67a.41.41,0,0,0-.15-.57.42.42,0,0,0-.58.15L455.1,80.08a.41.41,0,0,0,.15.57A.42.42,0,0,0,455.46,80.71Z" style="fill:#e0e0e0"></path><path d="M469.13,72.82a.43.43,0,0,0,.36-.21.42.42,0,0,0-.15-.58l-13.67-7.89a.42.42,0,0,0-.57.16.41.41,0,0,0,.15.57l13.67,7.89A.37.37,0,0,0,469.13,72.82Z" style="fill:#e0e0e0"></path><path d="M427.92,80.65l-13.66-7.89a.41.41,0,0,1-.21-.36.44.44,0,0,1,.21-.37l13.66-7.89a.45.45,0,0,1,.42,0L442,72a.44.44,0,0,1,.21.37.41.41,0,0,1-.21.36l-13.67,7.89a.37.37,0,0,1-.21.06A.42.42,0,0,1,427.92,80.65ZM428.13,65,415.31,72.4l12.82,7.4L441,72.4Z" style="fill:#e0e0e0"></path><path d="M414.47,72.82H441.8a.42.42,0,1,0,0-.84H414.47a.42.42,0,1,0,0,.84Z" style="fill:#e0e0e0"></path><path d="M428.13,80.71a.42.42,0,0,0,.42-.42V64.51a.42.42,0,0,0-.42-.42.42.42,0,0,0-.42.42V80.29A.42.42,0,0,0,428.13,80.71Z" style="fill:#e0e0e0"></path><path d="M441.59,72.76l-13.67-7.89a.41.41,0,0,1,0-.72l13.67-7.89a.4.4,0,0,1,.42,0l13.66,7.88a.44.44,0,0,1,.21.37.41.41,0,0,1-.21.36L442,72.76a.42.42,0,0,1-.21.06A.39.39,0,0,1,441.59,72.76Zm.21-15.65L429,64.51l12.82,7.4,12.82-7.4Z" style="fill:#e0e0e0"></path><path d="M428.13,64.93h27.33a.42.42,0,1,0,0-.84H428.13a.42.42,0,1,0,0,.84Z" style="fill:#e0e0e0"></path><path d="M441.8,72.82a.42.42,0,0,0,.42-.42V56.62a.42.42,0,0,0-.84,0V72.4A.42.42,0,0,0,441.8,72.82Z" style="fill:#e0e0e0"></path><path d="M455.25,64.87,441.59,57a.41.41,0,0,1,0-.72l13.66-7.89a.4.4,0,0,1,.42,0l13.67,7.89a.41.41,0,0,1,0,.72l-13.67,7.89a.39.39,0,0,1-.21.06A.42.42,0,0,1,455.25,64.87Zm.21-15.65-12.82,7.4L455.46,64l12.82-7.4Z" style="fill:#e0e0e0"></path><path d="M441.8,57h27.33a.42.42,0,1,0,0-.84H441.8a.42.42,0,1,0,0,.84Z" style="fill:#e0e0e0"></path><path d="M455.46,64.93a.42.42,0,0,0,.42-.42V48.73a.42.42,0,0,0-.84,0V64.51A.42.42,0,0,0,455.46,64.93Z" style="fill:#e0e0e0"></path><polygon points="469.13 56.62 455.46 48.73 455.46 64.51 469.13 72.4 469.13 56.62" style="fill:#e0e0e0"></polygon></g><path d="M343.53,211.87c-2.43,1.4-4.4-.09-4.4-3.33s2-7,4.4-8.42,4.41.08,4.41,3.33S346,210.47,343.53,211.87Z" style="fill:#fff;opacity:0.25"></path><path d="M342.91,204.48a1,1,0,0,1,.63-.85,1.74,1.74,0,0,1,1.57-.17l1-2.07a1.79,1.79,0,0,0-1.86-.21v-2l-1.3.74v2a4.84,4.84,0,0,0-1.91,3.66c0,2.9,3.27.83,3.27,1.88,0,.31-.22.59-.65.83a2.67,2.67,0,0,1-2.06.27l-.86,2.28a2.64,2.64,0,0,0,2.21-.06v2.27l1.3-.75V210a5.08,5.08,0,0,0,1.95-3.78C346.17,203.4,342.91,205.35,342.91,204.48Z" style="fill:#fff"></path></g></g><g id="freepik--magnifying-glass--inject-121"><g id="freepik--magnifying-glass--inject-121"><path d="M63.57,336.35a1.08,1.08,0,0,1,0-.18l4.21-109.09h0c0-1.58,1-3.15,3.13-4.33,4.17-2.36,10.94-2.27,15.11.2,2.09,1.24,3.13,2.84,3.13,4.42h0l4.24,109.2a1.08,1.08,0,0,1,0,.18c0,.1,0,.2,0,.3A14.68,14.68,0,0,1,78.48,351.8a15.19,15.19,0,0,1-14.92-15.16C63.56,336.54,63.57,336.45,63.57,336.35Z" style="fill:#ebebeb"></path><path d="M86,223c4.17,2.47,4.17,6.38,0,8.74s-10.94,2.27-15.11-.2-4.17-6.39,0-8.75S81.85,220.48,86,223Z" style="fill:#e0e0e0"></path><path d="M86,223c4.17,2.47,4.17,6.38,0,8.74s-10.94,2.27-15.11-.2-4.17-6.39,0-8.75S81.85,220.48,86,223Z" style="opacity:0.25"></path><path d="M84,332.61l-2.41-99.43A14.07,14.07,0,0,0,86,231.71c2.07-1.18,3.12-2.72,3.13-4.31l4.24,109.17a1.08,1.08,0,0,1,0,.18c0,.1,0,.2,0,.3A14.68,14.68,0,0,1,78.48,351.8C83.12,350.68,84.26,342.61,84,332.61Z" style="fill:#f5f5f5"></path><path d="M73.89,190.3a10.09,10.09,0,0,1,9.14.12,3.3,3.3,0,0,1,1.9,2.67h0v33.5h0A3.15,3.15,0,0,1,83,229.2a10.07,10.07,0,0,1-9.13-.12,3.27,3.27,0,0,1-1.9-2.67V192.92h0A3.16,3.16,0,0,1,73.89,190.3Z" style="fill:#e0e0e0"></path><path d="M84.93,209.31v-11c-4.34,1-8.66,1.75-12.93,2.32v10.79C76.31,210.93,80.63,210.21,84.93,209.31Z" style="opacity:0.25"></path><path d="M137,58.83,118.14,47.92C107.56,41.81,92.93,42.7,76.78,52c-32.31,18.66-58.5,64-58.5,101.33,0,18.65,6.55,31.75,17.14,37.86l18.86,10.89A30,30,0,0,0,69.52,206c7.86,0,16.73-2.56,26.12-8,32.31-18.64,58.5-64,58.5-101.31C154.14,78.05,147.6,65,137,58.83Zm-26.94,80c-10.25,17.74-23.73,32-38,40.26-7.46,4.3-14.71,6.63-21,6.74-3.05-5.42-4.69-12.72-4.69-21.58,0-16.43,5.64-35.25,15.89-53s23.73-32,38-40.26c7.46-4.31,14.72-6.64,21-6.74,3,5.43,4.67,12.73,4.67,21.57C126,102.23,120.34,121.05,110.09,138.8Z" style="fill:#ebebeb"></path><path d="M33.57,99l26.92,15.54c.59-1.1,1.21-2.19,1.84-3.29A133.42,133.42,0,0,1,72.91,95.54L45.94,80A142.67,142.67,0,0,0,33.57,99ZM60.2,64.35q-4.08,3.75-7.89,8L79.39,88a106.65,106.65,0,0,1,8.13-7.85Z" style="fill:#fff;opacity:0.1"></path><path d="M54.21,202,35.42,191.2C24.83,185.09,18.28,172,18.28,153.34c0-.72,0-1.44,0-2.16l18.85,10.89c0,.72,0,1.44,0,2.15C37.15,182.82,43.67,195.91,54.21,202Z" style="fill:#e0e0e0"></path><path d="M121.77,64.21h-.46c3,5.43,4.67,12.73,4.67,21.57,0,16.44-5.64,35.26-15.89,53s-23.73,32-38,40.26c-7.46,4.3-14.71,6.63-21,6.74,3.93,7,10.23,10.89,18.39,10.89,6.41,0,13.83-2.33,21.48-6.74,14.23-8.21,27.71-22.51,38-40.26s15.89-36.57,15.89-53C144.85,76.35,136.23,64.21,121.77,64.21Z" style="fill:#e0e0e0"></path><path d="M136.07,91.64c0,16.43-5.64,35.26-15.89,53s-23.73,32-38,40.25c-7.65,4.42-15.07,6.75-21.48,6.75a22.28,22.28,0,0,1-5.76-.72h0a23.38,23.38,0,0,1-3.84-5.13c-3.05-5.42-4.69-12.72-4.69-21.58,0-16.43,5.64-35.25,15.89-53s23.73-32,38-40.26c7.46-4.31,14.72-6.64,21-6.74h.46a21.61,21.61,0,0,1,5.79.74C133,70.42,136.07,79.59,136.07,91.64Z" style="fill:#fff;opacity:0.30000000000000004"></path><path d="M95.64,62.91c-32.3,18.65-58.49,64-58.49,101.32S63.34,216.65,95.65,198s58.49-64,58.49-101.32S128,44.26,95.64,62.91ZM91,190c-7.65,4.41-15.07,6.74-21.48,6.74-8.16,0-14.46-3.86-18.39-10.89-3.05-5.42-4.69-12.72-4.69-21.58,0-16.43,5.64-35.25,15.89-53s23.73-32,38-40.26c7.46-4.31,14.72-6.64,21-6.74h.46c14.46,0,23.08,12.14,23.08,32.47,0,16.44-5.64,35.27-15.89,53S105.23,181.74,91,190Z" style="fill:#f5f5f5"></path><path d="M121.77,55.91c19.35,0,31.38,15.63,31.38,40.77,0,36.93-26,82-58,100.46-9,5.21-17.65,7.85-25.63,7.85-19.35,0-31.38-15.62-31.38-40.76,0-36.93,26-82,58-100.46,9-5.21,17.65-7.86,25.63-7.86M69.52,197.69c6.58,0,14.18-2.38,22-6.88,14.37-8.3,28-22.72,38.32-40.62s16-36.89,16-53.51c0-21-9-33.46-24.07-33.46h-.48c-6.47.1-13.9,2.48-21.5,6.87-14.38,8.31-28,22.73-38.32,40.63s-16,36.88-16,53.49c0,9,1.62,16.39,4.81,22.06,4.18,7.46,10.84,11.41,19.26,11.41M121.77,54.92c-7.86,0-16.74,2.57-26.13,8-32.3,18.65-58.49,64-58.49,101.32,0,26.46,13.18,41.76,32.37,41.76,7.86,0,16.74-2.57,26.13-8,32.3-18.65,58.49-64,58.49-101.32,0-26.46-13.18-41.76-32.37-41.76ZM69.52,196.69c-8.16,0-14.46-3.86-18.39-10.89-3.05-5.42-4.69-12.72-4.69-21.58,0-16.43,5.64-35.25,15.89-53s23.73-32,38-40.26c7.46-4.31,14.72-6.64,21-6.74h.46c14.46,0,23.08,12.14,23.08,32.47,0,16.44-5.64,35.27-15.89,53S105.23,181.74,91,190c-7.65,4.41-15.07,6.74-21.48,6.74Z" style="fill:#e0e0e0"></path><g style="opacity:0.30000000000000004"><path d="M51.34,111.93a135.57,135.57,0,0,0-11.88,33.24,94.92,94.92,0,0,0-2,17.53,65.36,65.36,0,0,0,1.92,17.47,38.78,38.78,0,0,0,7.76,15.6,28.09,28.09,0,0,0,14.69,9.07,36.62,36.62,0,0,0,17.44-.27A63.21,63.21,0,0,0,95.65,198a63.27,63.27,0,0,1-16.29,6.9,37,37,0,0,1-17.63.39,28.6,28.6,0,0,1-15-9.14,39.32,39.32,0,0,1-8-15.8,65.73,65.73,0,0,1-1.83-17.66A94.78,94.78,0,0,1,39,145.08a122.45,122.45,0,0,1,5-17A145.59,145.59,0,0,1,51.34,111.93Z" style="fill:#fff"></path></g><g style="opacity:0.30000000000000004"><path d="M121.77,64.21a22.14,22.14,0,0,1,8.58,1.58,19.8,19.8,0,0,1,7.14,5.08,26.49,26.49,0,0,1,4.6,7.51,39.06,39.06,0,0,1,2.43,8.49,67.73,67.73,0,0,1,.5,17.59,97,97,0,0,1-3.27,17.3,113.65,113.65,0,0,1-6,16.54,134.32,134.32,0,0,1-8.26,15.54A121,121,0,0,1,105,180.92a85.85,85.85,0,0,1-14.39,10.26,50,50,0,0,1-16.68,6,27.2,27.2,0,0,1-9-.1,20.2,20.2,0,0,1-8.27-3.65,19.53,19.53,0,0,1-3.32-3.1,22.56,22.56,0,0,1-2.62-3.68,32.55,32.55,0,0,1-3.32-8.28,58.32,58.32,0,0,1-1.48-17.59,90.26,90.26,0,0,1,2.73-17.38,112.87,112.87,0,0,1,5.69-16.6,129.36,129.36,0,0,1,8-15.6,127.17,127.17,0,0,0-12.78,32.42,90.24,90.24,0,0,0-2.44,17.21A57.12,57.12,0,0,0,48.8,178a31,31,0,0,0,3.28,7.87,21.05,21.05,0,0,0,5.55,6.28,18.62,18.62,0,0,0,7.64,3.32,25.37,25.37,0,0,0,8.43,0,47.8,47.8,0,0,0,16.06-5.89,84.32,84.32,0,0,0,14-10.1A119.21,119.21,0,0,0,126,153a130.57,130.57,0,0,0,14.36-31.59,95,95,0,0,0,3.48-17A67.47,67.47,0,0,0,143.63,87a38.28,38.28,0,0,0-2.19-8.36,25.66,25.66,0,0,0-4.32-7.46A19.62,19.62,0,0,0,130.24,66,22.09,22.09,0,0,0,121.77,64.21Z" style="fill:#fff"></path></g></g></g><g id="freepik--Plants--inject-121"><g id="freepik--plants--inject-121"><path d="M395.81,392.87l11.5,6.63c-.16-4.1-.51-10.2.05-14.31,3.47-25.12,13.26-33.4,17.91-45.63,4.9-12.88-1.07-17-8.84-14.71-6.92,2.07-16.94,12.32-20.09,31.06C394.24,368.39,394.61,381.93,395.81,392.87Z" style="fill:#25D366"></path><path d="M395.81,392.87l11.5,6.63c-.16-4.1-.51-10.2.05-14.31,3.47-25.12,13.26-33.4,17.91-45.63,4.9-12.88-1.07-17-8.84-14.71-6.92,2.07-16.94,12.32-20.09,31.06C394.24,368.39,394.61,381.93,395.81,392.87Z" style="fill:#fff;opacity:0.65"></path><path d="M401.91,396.39l1.15.66c-4.12-29.29,5.9-54.69,15.78-65.18a.5.5,0,0,0,0-.71.51.51,0,0,0-.71,0C408.23,341.67,398.22,367.24,401.91,396.39Z" style="fill:#fff"></path><path d="M404.08,397.64l6.47,3.74h0c3.44-10.13,7-14.19,11.36-20.85,4-6.06,8.64-9.81,11.11-14.07,2.18-3.77,3.82-8.51.58-11.38-5.17-4.56-11.92.27-16.56,5.49C413,365.08,405,377.09,404.08,397.64Z" style="fill:#25D366"></path><path d="M404.08,397.64l6.47,3.74h0c3.44-10.13,7-14.19,11.36-20.85,4-6.06,8.64-9.81,11.11-14.07,2.18-3.77,3.82-8.51.58-11.38-5.17-4.56-11.92.27-16.56,5.49C413,365.08,405,377.09,404.08,397.64Z" style="fill:#fff;opacity:0.30000000000000004"></path><path d="M406.73,399.17l.94.55c2.72-16,13.6-34.54,20.36-38.92a.53.53,0,0,0,.15-.72.51.51,0,0,0-.71-.15C420.47,364.47,409.61,382.91,406.73,399.17Z" style="fill:#fff"></path></g><g id="freepik--plants--inject-121"><path d="M95,392.87,83.53,399.5c.15-4.1.51-10.2-.06-14.31-3.47-25.12-13.26-33.4-17.91-45.63-4.9-12.88,1.07-17,8.84-14.71,6.92,2.07,16.94,12.32,20.1,31.06C96.59,368.39,96.22,381.93,95,392.87Z" style="fill:#25D366"></path><path d="M95,392.87,83.53,399.5c.15-4.1.51-10.2-.06-14.31-3.47-25.12-13.26-33.4-17.91-45.63-4.9-12.88,1.07-17,8.84-14.71,6.92,2.07,16.94,12.32,20.1,31.06C96.59,368.39,96.22,381.93,95,392.87Z" style="fill:#fff;opacity:0.65"></path><path d="M88.93,396.39l-1.15.66c4.11-29.29-5.91-54.69-15.79-65.18a.5.5,0,0,1,0-.71.51.51,0,0,1,.71,0C82.6,341.67,92.61,367.24,88.93,396.39Z" style="fill:#fff"></path><path d="M86.76,397.64l-6.47,3.74h0c-3.44-10.13-7-14.19-11.35-20.85-4-6.06-8.64-9.81-11.11-14.07-2.19-3.77-3.83-8.51-.58-11.38,5.17-4.56,11.91.27,16.55,5.49C77.8,365.08,85.87,377.09,86.76,397.64Z" style="fill:#25D366"></path><path d="M86.76,397.64l-6.47,3.74h0c-3.44-10.13-7-14.19-11.35-20.85-4-6.06-8.64-9.81-11.11-14.07-2.19-3.77-3.83-8.51-.58-11.38,5.17-4.56,11.91.27,16.55,5.49C77.8,365.08,85.87,377.09,86.76,397.64Z" style="fill:#fff;opacity:0.30000000000000004"></path><path d="M84.1,399.17l-.94.55c-2.72-16-13.59-34.54-20.35-38.92a.51.51,0,0,1-.15-.72.51.51,0,0,1,.71-.15C70.37,364.47,81.22,382.91,84.1,399.17Z" style="fill:#fff"></path></g></g><g id="freepik--Shadows--inject-121"><ellipse id="freepik--Shadow--inject-121" cx="360.66" cy="407.44" rx="56.26" ry="32.48" style="fill:#e0e0e0"></ellipse><path id="freepik--shadow--inject-121" d="M311.88,381.22l-56,32.32c-2.63,1.52-7.24,1.33-10.29-.43l-54.49-31.47c-3.05-1.75-3.38-4.41-.74-5.94l56-32.31c2.64-1.53,7.25-1.34,10.29.42l54.5,31.47C314.19,377,314.52,379.7,311.88,381.22Z" style="fill:#e0e0e0"></path><ellipse id="freepik--shadow--inject-121" cx="127.14" cy="407.44" rx="56.26" ry="32.48" style="fill:#e0e0e0"></ellipse><path id="freepik--shadow--inject-121" d="M237.61,457.85l35.84-20.7c1.34-.77,1.34-2,0-2.78l-35.84-20.7a5.32,5.32,0,0,0-4.82,0l-35.85,20.7c-1.33.77-1.33,2,0,2.78l35.85,20.7A5.38,5.38,0,0,0,237.61,457.85Z" style="fill:#e0e0e0"></path></g><g id="freepik--Blocks--inject-121"><g id="freepik--Block--inject-121"><g id="freepik--block--inject-121"><path d="M215.43,382.68,250,402.61a13.85,13.85,0,0,0,12.54,0L297,382.68a13.87,13.87,0,0,0,6.27-10.86V332A13.86,13.86,0,0,0,297,321.09l-34.52-19.93a13.85,13.85,0,0,0-12.54,0l-34.52,19.93A13.87,13.87,0,0,0,209.16,332v39.87A13.87,13.87,0,0,0,215.43,382.68Z" style="fill:#25D366"></path><path d="M215.43,382.68,250,402.61a13.85,13.85,0,0,0,12.54,0L297,382.68a13.87,13.87,0,0,0,6.27-10.86V332A13.86,13.86,0,0,0,297,321.09l-34.52-19.93a13.85,13.85,0,0,0-12.54,0l-34.52,19.93A13.87,13.87,0,0,0,209.16,332v39.87A13.87,13.87,0,0,0,215.43,382.68Z" style="opacity:0.4"></path><path d="M297,328.33l-34.52,19.93a13.88,13.88,0,0,0-6.27,10.87V399c0,4,2.81,5.62,6.27,3.62L297,382.68a13.87,13.87,0,0,0,6.27-10.86V332C303.29,328,300.48,326.33,297,328.33Z" style="fill:#25D366"></path><path d="M281.56,348.76a10.82,10.82,0,0,1,4.17-1.57,4.13,4.13,0,0,1,3,.7,5.43,5.43,0,0,1,1.81,2.71,16.28,16.28,0,0,1,.77,4.5c.08,2.08.08,4.22,0,6.4a27.37,27.37,0,0,1-.77,5.37,21.12,21.12,0,0,1-1.8,4.81,18.23,18.23,0,0,1-2.9,4.08,17.75,17.75,0,0,1-4.08,3.19l-8.17,4.73a.54.54,0,0,1-.62,0,.81.81,0,0,1-.26-.68V355.06a2.11,2.11,0,0,1,.26-1,1.69,1.69,0,0,1,.62-.71Zm5.33,8.87a8.61,8.61,0,0,0-.41-2.34,3,3,0,0,0-1-1.5,2.3,2.3,0,0,0-1.67-.42,6.05,6.05,0,0,0-2.4.89l-4.35,2.51v19.47l4.51-2.6a9.52,9.52,0,0,0,2.31-1.83,10.64,10.64,0,0,0,1.62-2.3,11.85,11.85,0,0,0,1-2.65,15.21,15.21,0,0,0,.41-2.83C287,361.85,287,359.71,286.89,357.63Z" style="fill:#fff"></path><path d="M215.43,328.33,250,348.26a13.85,13.85,0,0,0,12.54,0L297,328.33c3.47-2,3.47-5.24,0-7.24l-34.52-19.93a13.85,13.85,0,0,0-12.54,0l-34.52,19.93C212,323.09,212,326.33,215.43,328.33Z" style="fill:#25D366"></path><path d="M215.43,328.33,250,348.26a13.85,13.85,0,0,0,12.54,0L297,328.33c3.47-2,3.47-5.24,0-7.24l-34.52-19.93a13.85,13.85,0,0,0-12.54,0l-34.52,19.93C212,323.09,212,326.33,215.43,328.33Z" style="fill:#fff;opacity:0.15"></path><path d="M215.43,328.33,250,348.26a13.88,13.88,0,0,1,6.27,10.87V399c0,4-2.81,5.62-6.27,3.62l-34.52-19.93a13.87,13.87,0,0,1-6.27-10.86V332C209.16,328,212,326.33,215.43,328.33Z" style="fill:#25D366"></path><path d="M215.43,328.33,250,348.27a13.87,13.87,0,0,1,6.27,10.86V399c0,4-2.81,5.62-6.27,3.62l-34.52-19.93a13.84,13.84,0,0,1-6.27-10.86V332C209.16,328,212,326.33,215.43,328.33Z" style="opacity:0.2"></path></g><g id="freepik--block--inject-121"><path d="M204.9,329.2l34.53,19.94a13.85,13.85,0,0,0,12.54,0l34.52-19.94a13.87,13.87,0,0,0,6.27-10.86V278.48a13.87,13.87,0,0,0-6.27-10.86L252,247.69a13.85,13.85,0,0,0-12.54,0L204.9,267.62a13.87,13.87,0,0,0-6.27,10.86v39.86A13.87,13.87,0,0,0,204.9,329.2Z" style="fill:#25D366"></path><path d="M286.49,274.86,252,294.79a13.87,13.87,0,0,0-6.27,10.86v39.87c0,4,2.81,5.62,6.27,3.62l34.52-19.94a13.87,13.87,0,0,0,6.27-10.86V278.48C292.76,274.48,290,272.86,286.49,274.86Z" style="fill:#25D366"></path><path d="M286.49,274.86,252,294.79a13.87,13.87,0,0,0-6.27,10.86v39.87c0,4,2.81,5.62,6.27,3.62l34.52-19.94a13.87,13.87,0,0,0,6.27-10.86V278.48C292.76,274.48,290,272.86,286.49,274.86Z" style="fill:#fff;opacity:0.35000000000000003"></path><path d="M275.61,323.53c-.37.21-.65.25-.85.1a5.1,5.1,0,0,1-.42-.36l-9.09-12.76v17.83a2.09,2.09,0,0,1-.25,1,1.66,1.66,0,0,1-.62.7l-2.63,1.52a.52.52,0,0,1-.62,0,.79.79,0,0,1-.26-.67v-28a2.14,2.14,0,0,1,.26-1,1.73,1.73,0,0,1,.62-.7l2.27-1.31c.37-.21.65-.25.85-.1a5.1,5.1,0,0,1,.42.36L274.38,313V295.12a2.09,2.09,0,0,1,.25-1,1.66,1.66,0,0,1,.62-.7l2.63-1.52a.52.52,0,0,1,.62,0,.79.79,0,0,1,.26.67v28a2.14,2.14,0,0,1-.26,1,1.73,1.73,0,0,1-.62.7Z" style="fill:#fff"></path><path d="M204.9,274.86l34.53,19.93a13.85,13.85,0,0,0,12.54,0l34.52-19.93c3.46-2,3.46-5.24,0-7.24L252,247.69a13.85,13.85,0,0,0-12.54,0L204.9,267.62C201.44,269.62,201.44,272.86,204.9,274.86Z" style="fill:#25D366"></path><path d="M204.9,274.86l34.53,19.93a13.85,13.85,0,0,0,12.54,0l34.52-19.93c3.46-2,3.46-5.24,0-7.24L252,247.69a13.85,13.85,0,0,0-12.54,0L204.9,267.62C201.44,269.62,201.44,272.86,204.9,274.86Z" style="fill:#fff;opacity:0.55"></path><path d="M204.9,274.86l34.53,19.93a13.87,13.87,0,0,1,6.27,10.86v39.87c0,4-2.81,5.62-6.27,3.62L204.9,329.2a13.87,13.87,0,0,1-6.27-10.86V278.48C198.63,274.48,201.44,272.86,204.9,274.86Z" style="fill:#25D366"></path><path d="M204.9,274.86l34.53,19.93a13.87,13.87,0,0,1,6.27,10.86v39.87c0,4-2.81,5.62-6.27,3.62L204.9,329.2a13.85,13.85,0,0,1-6.27-10.86V278.48C198.63,274.48,201.44,272.86,204.9,274.86Z" style="fill:#fff;opacity:0.15"></path></g><g id="freepik--block--inject-121"><path d="M209,267.84l34.52,19.93a13.88,13.88,0,0,0,12.55,0l34.52-19.93A13.87,13.87,0,0,0,296.83,257V217.12a13.88,13.88,0,0,0-6.27-10.87L256,186.32a13.88,13.88,0,0,0-12.55,0L209,206.25a13.88,13.88,0,0,0-6.27,10.87V257A13.87,13.87,0,0,0,209,267.84Z" style="fill:#25D366"></path><path d="M209,267.84l34.52,19.93a13.88,13.88,0,0,0,12.55,0l34.52-19.93A13.87,13.87,0,0,0,296.83,257V217.12a13.88,13.88,0,0,0-6.27-10.87L256,186.32a13.88,13.88,0,0,0-12.55,0L209,206.25a13.88,13.88,0,0,0-6.27,10.87V257A13.87,13.87,0,0,0,209,267.84Z" style="opacity:0.4"></path><path d="M290.56,213.5,256,233.43a13.85,13.85,0,0,0-6.28,10.86v39.86c0,4,2.81,5.62,6.28,3.62l34.52-19.93A13.87,13.87,0,0,0,296.83,257V217.12C296.83,213.12,294,211.5,290.56,213.5Z" style="fill:#25D366"></path><path d="M290.56,213.5,256,233.43a13.85,13.85,0,0,0-6.28,10.86v39.86c0,4,2.81,5.62,6.28,3.62l34.52-19.93A13.87,13.87,0,0,0,296.83,257V217.12C296.83,213.12,294,211.5,290.56,213.5Z" style="opacity:0.1"></path><path d="M275.08,234.21c.35-.2.61-.22.78-.08a1.89,1.89,0,0,1,.45.84l8,22.76a1.09,1.09,0,0,1,0,.28,2.15,2.15,0,0,1-.26,1,1.66,1.66,0,0,1-.62.7L281.09,261c-.44.25-.74.3-.91.15a1,1,0,0,1-.36-.5l-1.4-4-10.25,5.92-1.4,5.61a4.13,4.13,0,0,1-.35.92,2.29,2.29,0,0,1-.91.89l-2.34,1.35a.52.52,0,0,1-.62,0,.79.79,0,0,1-.26-.67,1.08,1.08,0,0,1,0-.32l7.95-31.94a6.45,6.45,0,0,1,.45-1.37,1.92,1.92,0,0,1,.78-.82Zm1.79,18-3.57-10.27-3.57,14.39Z" style="fill:#fff"></path><path d="M209,213.5l34.52,19.93a13.88,13.88,0,0,0,12.55,0l34.52-19.93c3.46-2,3.46-5.25,0-7.25L256,186.32a13.88,13.88,0,0,0-12.55,0L209,206.25C205.51,208.25,205.51,211.5,209,213.5Z" style="fill:#25D366"></path><path d="M209,213.5l34.52,19.93a13.84,13.84,0,0,1,6.27,10.86v39.86c0,4-2.8,5.62-6.27,3.62L209,267.84A13.87,13.87,0,0,1,202.7,257V217.12C202.7,213.12,205.51,211.5,209,213.5Z" style="fill:#25D366"></path><path d="M209,213.5l34.52,19.93a13.84,13.84,0,0,1,6.27,10.86v39.86c0,4-2.8,5.62-6.27,3.62L209,267.84A13.87,13.87,0,0,1,202.7,257V217.12C202.7,213.12,205.51,211.5,209,213.5Z" style="opacity:0.25"></path></g></g></g><g id="freepik--Cone--inject-121"><g id="freepik--cone--inject-121"><path d="M201.23,430.79l31.83-18.38a4.74,4.74,0,0,1,4.28,0l31.82,18.38A1.49,1.49,0,0,1,270,432v2.32a1.48,1.48,0,0,1-.88,1.23L237.34,454a4.66,4.66,0,0,1-4.28,0l-31.83-18.37a1.5,1.5,0,0,1-.88-1.23V432A1.51,1.51,0,0,1,201.23,430.79Z" style="fill:#25D366"></path><path d="M200.35,432v2.32a1.5,1.5,0,0,0,.88,1.23L233.06,454a4.32,4.32,0,0,0,2.14.52V411.9a4.31,4.31,0,0,0-2.14.51l-31.83,18.38A1.51,1.51,0,0,0,200.35,432Z" style="opacity:0.1"></path><path d="M235.2,411.9v42.57a4.29,4.29,0,0,0,2.14-.52l31.82-18.37a1.48,1.48,0,0,0,.88-1.23V432a1.49,1.49,0,0,0-.88-1.24l-31.82-18.38A4.29,4.29,0,0,0,235.2,411.9Z" style="opacity:0.30000000000000004"></path><path d="M237.34,451.64l31.83-18.38a1.3,1.3,0,0,0,0-2.47l-31.83-18.38a4.74,4.74,0,0,0-4.28,0l-31.83,18.38a1.3,1.3,0,0,0,0,2.47l31.83,18.38A4.74,4.74,0,0,0,237.34,451.64Z" style="fill:#25D366"></path><path d="M237.34,451.64l31.83-18.38a1.3,1.3,0,0,0,0-2.47l-31.83-18.38a4.74,4.74,0,0,0-4.28,0l-31.83,18.38a1.3,1.3,0,0,0,0,2.47l31.83,18.38A4.74,4.74,0,0,0,237.34,451.64Z" style="fill:#fff;opacity:0.5"></path><path d="M235.2,411.9a4.4,4.4,0,0,1,2.14.51l31.83,18.38a1.3,1.3,0,0,1,0,2.47l-31.83,18.38a4.4,4.4,0,0,1-2.14.51Z" style="opacity:0.05"></path><path d="M215.55,429.71h0l14.09-42.31v0l0,0h0a3.28,3.28,0,0,1,1.54-1.64,8.86,8.86,0,0,1,8,0,3.25,3.25,0,0,1,1.53,1.64h0l0,0h0l14.08,42.32h0c1.29,3.68-.52,7.65-5.47,10.51-7.83,4.52-20.53,4.52-28.37,0C216.07,437.36,214.25,433.39,215.55,429.71Z" style="fill:#25D366"></path><path d="M225.59,399.53v0l2-6a2.94,2.94,0,0,0,.88,3,6.05,6.05,0,0,0,1.25,1,12.1,12.1,0,0,0,10.93,0,5.87,5.87,0,0,0,1.26-1,2.93,2.93,0,0,0,.87-3l2,6v0a3.46,3.46,0,0,1-.44,3,6.43,6.43,0,0,1-2.25,2,11.47,11.47,0,0,1-2.43,1,16.32,16.32,0,0,1-9,0,11.47,11.47,0,0,1-2.43-1,6.43,6.43,0,0,1-2.25-2A3.46,3.46,0,0,1,225.59,399.53Z" style="fill:#fafafa"></path><path d="M217.52,423.77v0l2-6a5.48,5.48,0,0,0-.11,3,6.91,6.91,0,0,0,1.7,3,11.73,11.73,0,0,0,2.8,2.18c6.23,3.6,16.33,3.6,22.56,0a12.14,12.14,0,0,0,2.8-2.18,6.88,6.88,0,0,0,1.69-3,5.36,5.36,0,0,0-.11-3l2,6,0,0a6.13,6.13,0,0,1,.22,3c-.41,2.29-2.13,4.52-5.17,6.28-7,4.06-18.43,4.06-25.46,0-3.05-1.76-4.77-4-5.18-6.28A6.07,6.07,0,0,1,217.52,423.77Z" style="fill:#fafafa"></path><path d="M221.55,411.65l0,0,2-6a4.09,4.09,0,0,0,.19,3,7,7,0,0,0,3,3l.09.06c4.62,2.67,12.12,2.67,16.74,0l.09-.06a7.11,7.11,0,0,0,3-3,4.09,4.09,0,0,0,.19-3l2,6,0,.05a4.72,4.72,0,0,1,0,3,6.86,6.86,0,0,1-2.21,3,10.64,10.64,0,0,1-1.61,1.13,17.57,17.57,0,0,1-5.33,1.91,23.79,23.79,0,0,1-9,0,17.63,17.63,0,0,1-5.34-1.91,10.64,10.64,0,0,1-1.61-1.13,6.83,6.83,0,0,1-2.2-3A4.75,4.75,0,0,1,221.55,411.65Z" style="fill:#fafafa"></path><path d="M235.2,384.74a8.2,8.2,0,0,1,4,1,3.25,3.25,0,0,1,1.53,1.64h0l0,0h0l14.08,42.32h0c1.29,3.68-.52,7.65-5.47,10.51a29,29,0,0,1-14.18,3.39l.12,0a11.91,11.91,0,0,0,9.75-13.46L239.21,388Z" style="opacity:0.1"></path><path d="M239.21,390.33c2.22-1.28,2.22-3.35,0-4.63a8.86,8.86,0,0,0-8,0c-2.22,1.28-2.22,3.35,0,4.63A8.86,8.86,0,0,0,239.21,390.33Z" style="fill:#25D366"></path><path d="M239.21,390.33c2.22-1.28,2.22-3.35,0-4.63a8.86,8.86,0,0,0-8,0c-2.22,1.28-2.22,3.35,0,4.63A8.86,8.86,0,0,0,239.21,390.33Z" style="fill:#fff;opacity:0.5"></path></g></g><g id="freepik--speech-bubble--inject-121"><g id="freepik--speech-bubble--inject-121"><g id="freepik--speech-bubble--inject-121"><path d="M369.52,124.42l-1-3.07c-.53-2.48,9.59,3.36,10.12,5.84L375.4,136a1.4,1.4,0,0,1-.55.64c-.71.44-3.35,1.93-3.58,2.07a1.42,1.42,0,0,1-2.09-.78L365,123.41C364.7,122.19,367,123,369.52,124.42Z" style="fill:#25D366"></path><path d="M369.52,124.42l-1-3.07c-.53-2.48,9.59,3.36,10.12,5.84L375.4,136a1.4,1.4,0,0,1-.55.64c-.71.44-3.35,1.93-3.58,2.07a1.42,1.42,0,0,1-2.09-.78L365,123.41C364.7,122.19,367,123,369.52,124.42Z" style="fill:#fff;opacity:0.1"></path><path d="M357.19,64.6l38.48,22.19A2.89,2.89,0,0,1,397,89v45.6a2.82,2.82,0,0,1-1.31,2.24l-3.8,2.16a2.92,2.92,0,0,1-2.61,0l-38.48-22.2a2.86,2.86,0,0,1-1.3-2.25V69a2.83,2.83,0,0,1,1.31-2.24l3.81-2.17A2.9,2.9,0,0,1,357.19,64.6Z" style="fill:#25D366"></path><path d="M357.19,64.6l38.48,22.19A2.89,2.89,0,0,1,397,89v45.6a2.82,2.82,0,0,1-1.31,2.24l-3.8,2.16a2.92,2.92,0,0,1-2.61,0l-38.48-22.2a2.86,2.86,0,0,1-1.3-2.25V69a2.83,2.83,0,0,1,1.31-2.24l3.81-2.17A2.9,2.9,0,0,1,357.19,64.6Z" style="fill:#fff;opacity:0.1"></path><path d="M350.77,68.24l38.48,22.19a2.89,2.89,0,0,1,1.3,2.26v45.59c0,.83-.58,1.16-1.3.75l-14.73-8.5-2.7,7.51a1.41,1.41,0,0,1-2.64-.14l-3.59-12.52-14.82-8.55a2.86,2.86,0,0,1-1.3-2.25V69C349.47,68.16,350.05,67.82,350.77,68.24Z" style="fill:#25D366"></path><path d="M350.77,68.24l38.48,22.19a2.89,2.89,0,0,1,1.3,2.26v45.59c0,.83-.58,1.16-1.3.75l-14.73-8.5-2.7,7.51a1.41,1.41,0,0,1-2.64-.14l-3.59-12.52-14.82-8.55a2.86,2.86,0,0,1-1.3-2.25V69C349.47,68.16,350.05,67.82,350.77,68.24Z" style="fill:#fff;opacity:0.30000000000000004"></path><g id="freepik--Check--inject-121"><path d="M364.05,117l-.39,0a2.87,2.87,0,0,1-2.2-1.62l-4.6-9.7a2.86,2.86,0,0,1,5.18-2.43l2.72,5.69,13.14-15.3a2.86,2.86,0,1,1,4.34,3.73l-16,18.66A2.88,2.88,0,0,1,364.05,117Z" style="fill:#fafafa"></path></g></g><path d="M349.49,68.75c.1-.65.64-.89,1.28-.52l38.48,22.2a2.72,2.72,0,0,1,.92,1l6.4-3.69a2.68,2.68,0,0,0-.9-.93l-38.48-22.2a2.92,2.92,0,0,0-2.61,0l-3.8,2.16A2.92,2.92,0,0,0,349.49,68.75Z" style="fill:#fff;opacity:0.7000000000000001"></path></g></g><g id="freepik--character-2--inject-121"><g id="freepik--Character--inject-121"><g id="freepik--Bottom--inject-121"><g id="freepik--bottom--inject-121"><polygon points="347.23 401.88 344.12 400.4 347.17 399.54 347.23 401.88" style="fill:#263238"></polygon><path d="M316.51,407.73s36.48-16.55,36.95-14.12a3.57,3.57,0,0,1,0,1.46,1.47,1.47,0,0,0,.1-.13l-.65,4.55a10.92,10.92,0,0,1-5.67,2.39c0-.22,0-1.57-.06-2.34a18.57,18.57,0,0,0-3.21,1.71c-2.34,1.55-3.83,4.24-6.3,7.37-1.8,2.28-5,3.36-9.81,4.07-5.15.76-9.7-.19-11-1.55C315.83,410.06,316.33,408.05,316.51,407.73Z" style="fill:#263238"></path><path d="M317.52,406.88c.35-.37,1.64-1.79,3.4-3.35a64.93,64.93,0,0,1,5.25-4.48,19.87,19.87,0,0,0,2.6-2.16c.64-.68,1.24-1.38,1.81-2.12a39.31,39.31,0,0,0,4.36-7.43,17,17,0,0,0,1.52-3.89,25.07,25.07,0,0,0,.4-4.32c0-6.52-.15-7.55-.21-12.51l15.46.4c-.49,2.75-1.23,6.51-1.48,9.64-.37,4.76-.49,5.81,1.42,10.54.56,1.39,1.39,2.73,1.48,4.23.13,2.43-1.79,4.54-3.95,5.74-1.78,1-3.84,1.44-5.58,2.5a17.87,17.87,0,0,0-4.52,4.45c-1.22,1.56-2.2,3.41-3.92,4.51a16.08,16.08,0,0,1-5.94,2.08,32.67,32.67,0,0,1-8,.45C317.81,410.89,315,409.55,317.52,406.88Z" style="fill:#c8856a"></path><path d="M331.75,399.35a7,7,0,0,0-5.68-.48c-2.68,2.13-4.9,4-6.47,5.34-1.9,1.61-3.57,3.07-3.49,4.89.13,2.85,11.38,3.64,17.64.89a7.79,7.79,0,0,0,4.41-3.87S337.2,402.13,331.75,399.35ZM353,388.94a29.8,29.8,0,0,1-1.35-2.77c-2.17,1.19-5.93,6.6-4.15,12a8.36,8.36,0,0,0,5.48-3.73A5.11,5.11,0,0,0,353,388.94Z" style="fill:#37474f"></path><path d="M381.46,391.05c-1,1.64.26,7.79,0,12.18-.22,4-1.3,10.93-.11,14.86,1.42,4.66,4.32,10.06,9.76,5.67,3.38-2.73,5.32-6.23,5.8-12,.34-4-1.21-9.49-2.54-14.37-1.56-5.71-2.15-8.76-2.15-8.76Z" style="fill:#263238"></path><path d="M392.38,361.58c.4,9.3-.7,15.82-.77,21.78a41.25,41.25,0,0,0,.87,8c.79,3.79,2.14,9.08,2.71,11.54.79,3.44,1.39,5.61.18,9.46a4.55,4.55,0,0,1-.39.88c-1.69,3.18-6,5.58-7.37,5.19a2.38,2.38,0,0,1-2.42.83,2.56,2.56,0,0,1-.46-.11,4.37,4.37,0,0,1-.46-.18,4.65,4.65,0,0,1-2.29-2.92,8.52,8.52,0,0,1-.22-.84,35.12,35.12,0,0,1-.45-9.88c0-2.58,0-5.08-.22-8.56s-.76-14.16-2-19.4c-.91-3.65-2.06-8.24-3.26-13.12Z" style="fill:#c8856a"></path><path d="M396,407.42c-3.39-1.47-13.22-1.68-14.79,3,0,4.42-.07,7.42,2.78,11.27,3.78,5.12,8.71-.31,10.6-3.75S396.49,409.8,396,407.42Z" style="fill:#37474f"></path><path d="M379.56,240.15c4.79,8.43,8.65,15.54,9.9,37.8,1.41,25.13,1.2,34.7,1.32,37.73s2.12,8.6,3.81,23.53-.09,51.14-.09,51.14-1.2,2.44-7,3A15.11,15.11,0,0,1,379,392s-8.53-47.53-10.63-56.52-8.24-38.54-8.24-38.54l-2,28.21s1.7,8.23.16,21.35-5.49,37.91-5.49,37.91-2.28,2.27-9.3,2.13c-7.47-.14-9-2.18-9-2.18s-1.67-53.32-1.79-68.17-1-53.43,3.61-75.46Z" style="fill:#455a64"></path><path d="M339.29,262c2.33,6.11,10.66,10.35,14.32,11.18l4.46,23.41v28.52l2-28.21-5-28.53S345,267.77,339.29,262Zm34.59-3.24c.62,2.4,1.18,4.82,1.77,7.24s1.17,4.85,1.8,7.29a48.31,48.31,0,0,0-.56-7.51c-.35-2.49-.85-5-1.44-7.4a67.53,67.53,0,0,0-2.24-7.21,35.17,35.17,0,0,0-3.34-6.8c.78,2.4,1.48,4.78,2.14,7.18S373.3,256.38,373.88,258.8Zm4.27-4.68c.83,1.45,1.63,2.92,2.43,4.38l2.36,4.49a19.81,19.81,0,0,0-1.21-5,32.89,32.89,0,0,0-2.17-4.66,36.88,36.88,0,0,0-2.85-4.27,27.11,27.11,0,0,0-3.49-3.78c.77,1.54,1.61,3,2.44,4.46S377.34,252.66,378.15,254.12ZM374.85,322c-1.52-7.68-2.61-15.45-3.7-23.23s-2.1-15.58-3.26-23.36c.54,7.85,1.17,15.68,2,23.51s1.86,15.63,3.36,23.38,3.2,15.4,4.91,23.09,3.46,15.34,5.35,23q-1.9-11.64-4.12-23.23C378,337.4,376.41,329.66,374.85,322Zm-35-25.4,1.15-20.5q-1.53,10.17-2.4,20.42c-.58,6.83-1.12,13.64-1.09,20.57.28,6.89.47,34.14,1.34,40.94.6-7.61.4-27.69.4-27.69-.2-3.41,0-9.91-.13-13.29s.1-6.8.23-10.21S339.72,300,339.89,296.58Z" style="fill:#37474f"></path></g></g><g id="freepik--Top--inject-121"><path d="M377.67,155c.05.33,1,1,1.26,1.28a12.55,12.55,0,0,1,1.51,2,10.25,10.25,0,0,1,1.25,5,15.58,15.58,0,0,1-2.27,7.56,46.15,46.15,0,0,1-4.73,6.42c-1.47,1.76-2.93,3.53-4.39,5.29a2.82,2.82,0,0,1-1.14.95,2.68,2.68,0,0,1-1.32,0q-3.34-.57-6.69-1.24a32.33,32.33,0,0,1-6-1.65,17.48,17.48,0,0,1-7.88-6.65,12.2,12.2,0,0,1-2.15-4.84c-.06-.74.3-1.36.13-2.12a15.61,15.61,0,0,0-1.36-2.67,13.45,13.45,0,0,1-1.27-6.72c.52-4.74,3.56-10.86,12.32-12.48C362.19,143.71,376.06,145.53,377.67,155Z" style="fill:#263238"></path><path d="M271.29,184.68a4.43,4.43,0,0,1,2.6-.11,27.88,27.88,0,0,1,3.94,1.57c2,.78,5.25,2.06,7.43,1.7.44-.07,1.33-.36.66-.82a19.46,19.46,0,0,1-2.57-1.91,3.76,3.76,0,0,1-1.26-2.81,1.3,1.3,0,0,1,.34-.87c.33-.31.61-.17.92,0a9.88,9.88,0,0,0,1,.47c.73.29,1.47.59,2.2.9,4.25,1.8,8.55,4,11.4,7.69a42.15,42.15,0,0,0,5.77,6.08c4.67,4.33,12,10.76,12,10.76l12.52-9.57c7.42-5.65,12.26-7.42,18.84-7.27l-6.84,21s-13.81,8.68-18.53,11.58c-6.14,3.76-9.08,4.09-13-.06-2.73-2.86-4.6-5.79-8.23-10.87-3.94-5.52-4.66-7.44-6.35-9.09s-5-2.42-6.43-2.67a21.59,21.59,0,0,1-5.62-1.64,20,20,0,0,1-4.48-2.47,6,6,0,0,1-1.82-1.68,18.24,18.24,0,0,0-.63-1.94c-.42-.69-1.15-1.16-1.49-1.89a7.58,7.58,0,0,1-.36-1.85,3.19,3.19,0,0,0-1.64-2,2.8,2.8,0,0,1-1-.92C270.31,185.29,270.74,184.9,271.29,184.68Z" style="fill:#c8856a"></path><path d="M315.77,207.33a12.58,12.58,0,0,1,5.26,8c1.17-5.39-3.64-9.25-3.64-9.25Z" style="fill:#af6152"></path><path d="M288,189.4a14,14,0,0,0,5.63,5.43,6,6,0,0,1-3.86-1.38A5.34,5.34,0,0,1,288,189.4Z" style="fill:#af6152"></path><path id="freepik--Chest--inject-121" d="M384.26,251c2.83-2.23-.58-3.23-1.35-17-.19-3.57,2.3-14.53,2.3-14.53s-5.12-7.78-2.71-24.92l-11-2.85L355,190.77l-7.85-.28a91.06,91.06,0,0,0-10.75,12.38c-4.73,6.62-4.45,15.25.44,20.66a106.69,106.69,0,0,1-.44,12.34c-.72,5.73-4,11.26-.72,14.14C345.25,258.44,370.91,259.46,384.26,251Z" style="fill:#25D366"></path><path id="freepik--chest--inject-121" d="M384.26,251c2.83-2.23-.58-3.23-1.35-17-.19-3.57,2.3-14.53,2.3-14.53s-5.12-7.78-2.71-24.92l-11-2.85L355,190.77l-7.85-.28a91.06,91.06,0,0,0-10.75,12.38c-4.73,6.62-4.45,15.25.44,20.66a106.69,106.69,0,0,1-.44,12.34c-.72,5.73-4,11.26-.72,14.14C345.25,258.44,370.91,259.46,384.26,251Z" style="fill:#fff;opacity:0.6000000000000001"></path><g id="freepik--Head--inject-121"><g id="freepik--head--inject-121"><g id="freepik--head--inject-121"><path d="M373.75,179.35a5.46,5.46,0,0,0,4.92-1.74c2.63-2.74,2.92-5.57,1.75-7.47-1-1.57-3.37-2.6-5.1-1.59s-1.91,2-2.63,3.26-2.46.24-1.78-4.84c-3.51-1.7-2.84-7.52-4.71-9.92-2.93-3.78-7.88-2.9-9.49-2.05a6.56,6.56,0,0,0-6.72-.54c-2.4,1.21-4,3.81-5,12.84-1,9.21-.29,14,2.43,16.52a11.39,11.39,0,0,0,7.73,3.06l-.15,3.89s-9.64,9.19,2.55,8.51a19.14,19.14,0,0,0,13.91-7.43l.32-14S371.94,179,373.75,179.35Z" style="fill:#c8856a"></path><path d="M353.8,177.38a2.71,2.71,0,0,0,3.16,2.14,2.66,2.66,0,0,0,2.18-3.09Z" style="fill:#af6152"></path><path d="M359.15,177.3a2.67,2.67,0,0,1-2.19,2.22,2.81,2.81,0,0,1-1,0A2.73,2.73,0,0,1,359.15,177.3Z" style="fill:#f28f8f"></path><path d="M347.69,161.57l3.52-1.08a1.79,1.79,0,0,0-2.26-1.23A1.88,1.88,0,0,0,347.69,161.57Z" style="fill:#263238"></path><path d="M360.66,160.78l3.46,1.91a1.85,1.85,0,0,0-.68-2.63A2.11,2.11,0,0,0,360.66,160.78Z" style="fill:#263238"></path><path d="M362,167.39a1.45,1.45,0,1,1-1.42-1.47A1.44,1.44,0,0,1,362,167.39Z" style="fill:#263238"></path><path d="M350.41,166.75a1.45,1.45,0,1,1-1.42-1.47A1.45,1.45,0,0,1,350.41,166.75Z" style="fill:#263238"></path><path d="M342.37,163.6a2.57,2.57,0,0,0,.52,1.42,1,1,0,0,1,.22.5,22.62,22.62,0,0,0,.55,3.8,4.12,4.12,0,0,0,4,2.86,6.52,6.52,0,0,0,1.49-.05l.11,0a4.47,4.47,0,0,0,1.25-.39l.08,0,.1-.05.14-.08a.57.57,0,0,0,.13-.08l.14-.09.14-.1a2.32,2.32,0,0,0,.25-.21,5.57,5.57,0,0,0,1.11-1.38c.77-1.29.8-3.13,1.85-3.3h.26c1.39.08,1,2.07,1.66,3.54s1.78,2.91,4.81,3.08l.39,0h.32a5.69,5.69,0,0,0,.74-.06l.23,0,.23,0,.14,0a4.15,4.15,0,0,0,.86-.32,2.69,2.69,0,0,0,.29-.16A3.25,3.25,0,0,0,365,172a4.9,4.9,0,0,0,1.06-1.29,24.76,24.76,0,0,0,1.22-3.68,1.77,1.77,0,0,1,.28-.54,2.63,2.63,0,0,0,.83-1.31,1.09,1.09,0,0,0-.72-1.21l-.74-.13a24.54,24.54,0,0,0-7.39-.24c-2.4.5-3.29,1.16-4.59,1.09s-1.94-.84-4.09-1.62a21.4,21.4,0,0,0-6.88-.63l-.69,0A1.17,1.17,0,0,0,342.37,163.6Zm15.26,2a2.13,2.13,0,0,1,.72-.48l.13-.06.07,0,.34-.13.32-.1a7.76,7.76,0,0,1,1-.25l.41-.07a8.94,8.94,0,0,1,1-.11h.25c2.27-.07,3.62.49,4.09.94s0,2.4-.28,3.38a.64.64,0,0,1,0,.07l0,.08c0,.12-.08.25-.13.39a1.86,1.86,0,0,0-.1.25h0c0,.13-.12.26-.19.4h0c0,.05,0,.1-.08.14a.41.41,0,0,1-.05.09.41.41,0,0,1-.05.09l-.08.11-.09.13a1.13,1.13,0,0,1-.1.13l-.12.14a3.87,3.87,0,0,1-3.29,1.25,4.29,4.29,0,0,1-3.21-1.33h0a4,4,0,0,1-.88-2C357.16,167.51,357.13,166.22,357.63,165.64ZM344.48,164a2.07,2.07,0,0,1,.58-.3l.05,0,.25-.08.16,0,.12,0,.09,0h0l.13,0,.52-.05.29,0h.91a10,10,0,0,1,1,.13c1.59.29,3.2,1.06,3.57,1.7s.14,1.91-.18,3a7,7,0,0,1-.28.72l0,.06a.25.25,0,0,1,0,.07l0,.05-.05.09c0,.06-.07.12-.11.17a1.4,1.4,0,0,1-.1.16l0,.05-.07.1-.07.09h0a3.86,3.86,0,0,1-3.5,1.28,4,4,0,0,1-1.65-.45,4.12,4.12,0,0,1-1.86-3.3C344.07,166.4,344,164.43,344.48,164Z" style="fill:#37474f"></path><path d="M349.71,172.66l5.11,2.28,1.21-6.48c-.17-1-.34-2-1.18-2.07Z" style="fill:#af6152"></path><path d="M367.44,164.68l7.88,3.87a8.77,8.77,0,0,0-1.24.95l-6.87-3.2Z" style="fill:#37474f"></path></g></g><path d="M355.13,186.88c4.76-.1,11.17-1.65,12.93-4.63-1,3.23-4.39,4.86-7.07,5.55a28.31,28.31,0,0,1-5.85.89Z" style="fill:#af6152"></path></g><g id="freepik--Arm--inject-121"><path d="M354.25,216.25c-3-2.07-4.5-2.86-5.88-3.2s-6.24-2.17-8.09-2.57c-1.18-.26-1.6,1.58-.08,2.79,1.17.94,4.19,2.12,5.51,2.79s4,3.65,4,3.65Z" style="fill:#af6152"></path><path d="M395.75,204c-3.08-6-8.29-8-13.25-9.43-2.63,6.41-.7,20-.7,20l3.61,14.83s-17.27-2-19.3-3.17-7.5-6.67-9.34-8.31c-2.49-2.22-3.69-1.88-4.92-1.66-4,.7-4.92,1.06-5.76,1.62a1.79,1.79,0,0,0-.74,1.57c-1.07.16-2.68.17-2.84,1.91a4.68,4.68,0,0,0,0,1.39,1.17,1.17,0,0,0-.69.42c-.87,1,.77,4.52,1.77,5.35a3.54,3.54,0,0,0,2.95.43c1.09-.18.55-1.25.55-1.25l1.53.05c3.35,2.2,3.65,6.75,8,7.63a30.45,30.45,0,0,1,5.34.87c9.46,2.83,25.09,11.78,33.46,12.25,8.17.47,7.82-3.79,7.81-8.7C403.23,235.39,398.82,210,395.75,204Z" style="fill:#c8856a"></path><path d="M385,227.69l.39,1.67c3.74.83,8.23,5.53,9.18,7.49C393.81,233.71,391.6,229.22,385,227.69Z" style="fill:#af6152"></path><path d="M345.35,219.41l4.78-1.09-4.7.43A1.71,1.71,0,0,0,345.35,219.41Z" style="fill:#af6152"></path><path d="M342.48,222.71l5.52-.85-5.54.22A2.69,2.69,0,0,0,342.48,222.71Z" style="fill:#af6152"></path><path d="M347.49,226.85a2.16,2.16,0,0,1-.72-1s-1.33,0-1.93-.07a6.17,6.17,0,0,1-.74-.19,2.12,2.12,0,0,1-.82-.48,1.7,1.7,0,0,0,.76.61,3.44,3.44,0,0,0,.84.27l.33.65a1.2,1.2,0,0,0-.57.24,1.4,1.4,0,0,0-.46.72,1.8,1.8,0,0,1,.55-.61,1.15,1.15,0,0,1,.74-.15,2.38,2.38,0,0,1,1.59.84l1.53.05A10.06,10.06,0,0,1,347.49,226.85Z" style="fill:#af6152"></path></g></g><g id="freepik--block--inject-121"><path d="M215.68,199.51l34.68,19.65a13.85,13.85,0,0,0,12.54-.1l34.36-20.21a13.88,13.88,0,0,0,6.19-10.92l-.33-39.86a13.85,13.85,0,0,0-6.36-10.81l-34.68-19.65a13.89,13.89,0,0,0-12.54.1l-34.36,20.21A13.85,13.85,0,0,0,209,148.84l.32,39.86A13.85,13.85,0,0,0,215.68,199.51Z" style="fill:#25D366"></path><path d="M296.82,144.5l-34.36,20.21a13.9,13.9,0,0,0-6.18,10.92l.32,39.86c0,4,2.86,5.6,6.3,3.57l34.36-20.21a13.88,13.88,0,0,0,6.19-10.92l-.33-39.86C303.09,144.07,300.27,142.48,296.82,144.5Z" style="fill:#25D366"></path><path d="M296.82,144.5l-34.36,20.21a13.9,13.9,0,0,0-6.18,10.92l.32,39.86c0,4,2.86,5.6,6.3,3.57l34.36-20.21a13.88,13.88,0,0,0,6.19-10.92l-.33-39.86C303.09,144.07,300.27,142.48,296.82,144.5Z" style="fill:#fff;opacity:0.35000000000000003"></path><path d="M282.31,164.9q4-2.37,6.16-1.1t2.15,5.73a16.83,16.83,0,0,1-1,6,16.06,16.06,0,0,1-3.16,5.19L291,188.8a1.09,1.09,0,0,1,.11.42,1.74,1.74,0,0,1-.21.8,1.29,1.29,0,0,1-.5.57l-2.74,1.62q-.64.38-1,.15a1.44,1.44,0,0,1-.44-.5l-4.31-7.6-4.3,2.53.08,10.08a2.16,2.16,0,0,1-.25,1,1.71,1.71,0,0,1-.61.7l-2.62,1.54a.53.53,0,0,1-.62,0,.8.8,0,0,1-.26-.67l-.23-28a2.12,2.12,0,0,1,.25-1,1.69,1.69,0,0,1,.62-.71Zm-4.74,16.48,4.69-2.76a9.39,9.39,0,0,0,2.93-2.59,6.41,6.41,0,0,0,1.07-3.93c0-1.62-.39-2.49-1.12-2.6a4.79,4.79,0,0,0-2.95.9l-4.68,2.76Z" style="fill:#fff"></path><path d="M215.24,145.16l34.68,19.66a13.85,13.85,0,0,0,12.54-.11l34.36-20.21c3.45-2,3.42-5.27-.06-7.24l-34.68-19.65a13.89,13.89,0,0,0-12.54.1l-34.36,20.21C211.73,140,211.76,143.19,215.24,145.16Z" style="fill:#25D366"></path><path d="M215.24,145.16l34.68,19.66a13.85,13.85,0,0,0,12.54-.11l34.36-20.21c3.45-2,3.42-5.27-.06-7.24l-34.68-19.65a13.89,13.89,0,0,0-12.54.1l-34.36,20.21C211.73,140,211.76,143.19,215.24,145.16Z" style="fill:#fff;opacity:0.55"></path><path d="M215.24,145.16l34.68,19.66a13.85,13.85,0,0,1,6.36,10.81l.32,39.86c0,4-2.76,5.64-6.24,3.67l-34.68-19.65a13.85,13.85,0,0,1-6.36-10.81L209,148.84C209,144.84,211.76,143.19,215.24,145.16Z" style="fill:#25D366"></path><path d="M215.24,145.16l34.68,19.66a13.85,13.85,0,0,1,6.36,10.81l.32,39.86c0,4-2.76,5.64-6.24,3.67l-34.68-19.65a13.85,13.85,0,0,1-6.36-10.81L209,148.84C209,144.84,211.76,143.19,215.24,145.16Z" style="fill:#fff;opacity:0.15"></path></g></g></g><g id="freepik--character-1--inject-121"><g id="freepik--Chartacter--inject-121"><g id="freepik--bottom--inject-121"><path d="M139.3,383.34l-.72-13.7,15.53,1.88s-.64,7.38-1.08,11.55c-.27,2.47,2.82,7.24,2.82,7.24s-7.54,3.53-11.39,1.94-5.66-6.58-5.55-7.64S139.3,383.34,139.3,383.34Z" style="fill:#ffa8a7"></path><path d="M175.69,406.67c.25,0,.52,2.56-.86,3.59-1.59,1.19-6.2,3.07-12.16,2.12s-9.14-2.81-11.46-4.77-5.58-4.74-8.27-5.4c-2.5-.61-5.19-1.78-6-2.54s-.54-4-.54-4Z" style="fill:#263238"></path><path d="M139.29,383.32a1,1,0,0,0-.93.72c-.22.89-.52,3.47-1,4.92a24.37,24.37,0,0,0-.89,7.84c.27,1.67,4.33,3,6.91,4a33.62,33.62,0,0,1,8.3,5.33c2.73,2.28,8.57,4.76,12.47,4.88,4.62.14,9.87-1.07,11.14-3,1.57-2.42,2.75-5.26-4-8.48-1.27-.61-5.73-3.31-7.25-4.28-4.1-2.63-7-5-8.73-9.45a2.45,2.45,0,0,0-.94-1.38,2.35,2.35,0,0,0-1.32-.16,47.49,47.49,0,0,0-6.78.95c-.93.37-2.26.8-2.28,1.9a3.39,3.39,0,0,0,.22,1.13c.07.23.12.53-.09.66s-.46,0-.64-.19a16.5,16.5,0,0,1-1.76-2.15,6.63,6.63,0,0,0-1.05-1.07,11.82,11.82,0,0,1-1.14-.75C139.18,384.31,139.29,383.84,139.29,383.32Z" style="fill:#455a64"></path><path d="M151.71,406.14c-1.16-1-2.39-1.9-3.63-2.75h0s7.87,4.88,11.21,2.92c2.14-1.26,1.21-2.92,1.18-3.45S168,399,170,398.8h0c.56.31,1,.57,1.32.71,6.73,3.22,5.55,6.06,4,8.48-1.27,2-5.09,3.38-11.06,3.16C160.35,411,154.44,408.42,151.71,406.14Z" style="fill:#37474f"></path><path d="M160,401.33c4.2,1.75,2.36,2.42,1.16,2.54s-8.22-4.07-12.46-7.47c-4.44-3.54-7.17-7.34-8.81-8.64-.62-.49-1.28-1.08-1.86-1.64.14-.87.27-1.66.37-2.08a1,1,0,0,1,.93-.72c0,.52-.11,1,.29,1.4a11.82,11.82,0,0,0,1.14.75,6.63,6.63,0,0,1,1.05,1.07,16.5,16.5,0,0,0,1.76,2.15C147.08,393.24,155.77,399.57,160,401.33Z" style="fill:#37474f"></path><path d="M160.84,403.27a.39.39,0,0,1-.27-.1.37.37,0,0,1,0-.55c1.25-1.34,7.07-4.39,10.19-3.95a.4.4,0,1,1-.12.78c-2.91-.4-8.45,2.63-9.44,3.69A.42.42,0,0,1,160.84,403.27Z" style="fill:#263238"></path><path d="M157.21,401a.44.44,0,0,1-.27-.09.39.39,0,0,1,0-.56c1.26-1.33,7.08-4.38,10.2-3.95a.4.4,0,1,1-.12.78c-2.92-.4-8.45,2.64-9.44,3.69A.42.42,0,0,1,157.21,401Z" style="fill:#263238"></path><path d="M153.57,398.83a.39.39,0,0,1-.27-.1.38.38,0,0,1,0-.56c1.25-1.33,7.07-4.38,10.19-3.94a.4.4,0,0,1,.36.45.42.42,0,0,1-.48.33c-2.91-.4-8.45,2.63-9.44,3.69A.42.42,0,0,1,153.57,398.83Z" style="fill:#263238"></path><path d="M150.21,396.39a.44.44,0,0,1-.26-.1.39.39,0,0,1,0-.56c1.26-1.33,7.09-4.38,10.2-3.94a.39.39,0,0,1,.35.44.41.41,0,0,1-.47.34c-2.91-.4-8.45,2.63-9.44,3.69A.47.47,0,0,1,150.21,396.39Z" style="fill:#263238"></path><path d="M146.93,394a.44.44,0,0,1-.26-.1.37.37,0,0,1,0-.55c1.73-1.89,7.8-4.4,10.92-4a.4.4,0,0,1,.36.45.42.42,0,0,1-.48.33c-2.81-.39-8.62,2-10.15,3.69A.45.45,0,0,1,146.93,394Z" style="fill:#263238"></path><path d="M107.38,389.05l3.87-12.84-15.84-2.83-1,12.49s-1.79,4.42-.86,6.09S105,395.73,106,394.68,107.38,389.05,107.38,389.05Z" style="fill:#ffa8a7"></path><path d="M105.09,417.19c-.61,4-1.55,6.55-3.36,8.65s-4.92,2.37-7.93,1.18-6.8-3.67-7.38-7.29a19.59,19.59,0,0,1,.83-9.6Z" style="fill:#263238"></path><path d="M94.41,385.87c-1.28-.12-1.15,5.39-2.35,10.69-1.29,5.69-3.45,7.78-4.56,12.43-1.27,5.32-1.15,7.8.71,11.44s9.18,8.08,13.33,4c3.38-3.36,3.88-7.6,4.07-13.08a122.47,122.47,0,0,1,.91-13.88c.6-4,1.91-7.6.85-8.23-.13.58-.28,1.33-.42,1.9s-.43,2.63-1.14,2.54a7.17,7.17,0,0,1,.12-1.54,1.75,1.75,0,0,0-.24-1.37,5.8,5.8,0,0,0-2-1.12c-1.23-.42-3.43-1-4.69-1.28-.63-.15-1.26-.28-1.89-.37a5.26,5.26,0,0,0-1.63-.05,1,1,0,0,0-.73.44,1.54,1.54,0,0,0-.12.61,4,4,0,0,1-.25,1.09c-.06.15-.21.33-.38.26a.33.33,0,0,1-.18-.36c0-.66.19-1.12.29-1.88,0-.35.15-.82.18-1.17S94.35,386.21,94.41,385.87Z" style="fill:#455a64"></path><path d="M87.92,407.49c-.19.76-1.38,5.84.13,7S91,411.88,91,411.88s4.14-.45,9.83,2.78c-.37.8.3,3.73,2,3.4s2.8-6.19,2.82-6.27c-.21,5.25-.77,9.35-4,12.61-4.15,4.11-11.47-.33-13.33-4s-2-6.12-.71-11.44Q87.7,408.19,87.92,407.49Z" style="fill:#37474f"></path><path d="M91.42,412.31c-.2,2-2.33.94-2.18-1.85s2.42-9.12,2.82-13.9c.61-6.56,1.07-10.81,2.35-10.69,0,.06,0,.13,0,.19L94,388.79a11,11,0,0,0-.17,1.17c-.38,4-.72,11.81-1.43,15.42A56.38,56.38,0,0,0,91.42,412.31Z" style="fill:#37474f"></path><path d="M100.13,414.5a54.86,54.86,0,0,0,1.81-6.71c.75-3.57,3.16-10.68,4.37-14.51a8.73,8.73,0,0,0,.64-2.17c.13-.53.27-1.22.39-1.78a.56.56,0,0,0,0-.12c.76.47.38,3.57-.09,5.17s-1.05,3.31-1.65,5.6c-1.49,4.51-1.87,11.35-2.82,13.94S99.55,416.37,100.13,414.5Z" style="fill:#37474f"></path><path d="M100.92,414.84a.56.56,0,0,1-.16-.07,17.53,17.53,0,0,0-9.69-2.47.52.52,0,0,1-.55-.38.38.38,0,0,1,.38-.46,18.29,18.29,0,0,1,10.36,2.64.42.42,0,0,1,.14.6A.44.44,0,0,1,100.92,414.84Z" style="fill:#263238"></path><path d="M102.35,410.74l-.15-.06a21.63,21.63,0,0,0-10.85-2.76.52.52,0,0,1-.53-.4.38.38,0,0,1,.39-.45A22.39,22.39,0,0,1,102.67,410a.42.42,0,0,1,.17.59A.45.45,0,0,1,102.35,410.74Z" style="fill:#263238"></path><path d="M92,403.91a.48.48,0,0,1-.37-.34.38.38,0,0,1,.34-.49c5.83-.8,11.22,2.67,11.45,2.82a.42.42,0,0,1,.14.6.48.48,0,0,1-.64.07c-.06,0-5.29-3.4-10.72-2.65A.45.45,0,0,1,92,403.91Z" style="fill:#263238"></path><path d="M92.67,400.14a.51.51,0,0,1-.37-.34.38.38,0,0,1,.32-.49,17,17,0,0,1,11.69,2.82.41.41,0,0,1,.11.6.49.49,0,0,1-.66,0,16.17,16.17,0,0,0-10.89-2.62A.44.44,0,0,1,92.67,400.14Z" style="fill:#263238"></path><path d="M93.42,395.9a.52.52,0,0,1-.37-.33.38.38,0,0,1,.32-.49c6-1,11.53,2.78,11.76,2.95a.42.42,0,0,1,.13.6.5.5,0,0,1-.66.05s-5.37-3.71-11-2.77A.54.54,0,0,1,93.42,395.9Z" style="fill:#263238"></path><path d="M108.45,247.73c-4.72,31.49-6.38,76.84-6.38,76.84-.39,2.39-2.61,9.45-4.83,21.19-2,10.46-2.75,32.42-2.83,33.75,0,0,8.19,5.63,15.26,3.77,0,0,10.39-32.09,15-46.58C129,323,135,300.89,135,300.89l1.49,22.89s-1.15,9.15-1.35,15.48c-.22,7.37,3.35,36.9,3.35,36.9s8.08,5.17,15.66.06c0,0,6.77-42.57,7.61-51.39,1.64-17.3,3.82-52.91,2.88-74.35Z" style="fill:#455a64"></path><path d="M135,300.89l5.18-22.27s8.46-.64,13-4.28c0,0-3.15,5-11.19,6.5l-5,20.25-.53,22.69Z" style="fill:#263238"></path></g><g id="freepik--top--inject-121"><g id="freepik--arm--inject-121"><path d="M189.6,161.82c-1.59,7.38-.69,6.55-4.92,12.35-8.89,12.21-19.56,26.58-19.56,26.58-9.53,3.7-10.25-8.65-16-14.9,5.22-5.46,7.37-5.47,13.68-12.81,4-4.63,10.59-12.26,10.59-12.26s3-7.83,5.47-15c3.12-9,4.14-10.28,2.77-14.61a36.13,36.13,0,0,1-1.07-6.16c-.38-3-.31-6.07-.55-9.1a1.22,1.22,0,0,1,.05-.63c.34-.76,1.35-.24,1.81.1a3.77,3.77,0,0,1,1.14,2c.29,1,.54,1.94.82,2.92.07.26.24,1.17.61,1.16s.34-1,.36-1.21c.07-1,0-2,0-3l-.27-7.49a3.48,3.48,0,0,1,.06-1c.36-1.33,1.89-1.15,2.5.28a7,7,0,0,1,.37,1.18A32.85,32.85,0,0,1,188,114a11.47,11.47,0,0,0,.2,1.56c0,.11.18.83.38.53a.42.42,0,0,0,.05-.25c0-1.69-.09-3.39-.17-5.08,0-.86-.07-1.72-.07-2.58,0-.57-.15-1.63.3-2.08a1.07,1.07,0,0,1,.57-.26,1.83,1.83,0,0,1,1.73.74,4.94,4.94,0,0,1,.51,1,7.13,7.13,0,0,1,.26,1.13c.4-1,1.69-.71,2.18.07.75,1.19.77,2.53.85,4.19.09,1.88.13,2.79.14,5.61,0,.55.26.89.36.27a13.19,13.19,0,0,0,.17-1.54c0-.66,0-.87.07-1.56.06-.92,0-2.66.28-3s.93-.18,1.26.09a2,2,0,0,1,.52.82,13.76,13.76,0,0,1,.48,6.2c-.12,1.67-.27,3.34-.41,5-.27,3.07-.57,6.26-2.15,8.9a13,13,0,0,0-1.33,3.14c-1,3.75-1.57,8-2.35,12.42C191.28,152.62,190.82,156.22,189.6,161.82Z" style="fill:#ffa8a7"></path><path d="M187.07,123c2.78-.21,4,3.5,4.45,5.65.1.42-.06,1.72-.51.77-.16-.33-.3-.66-.46-1a15,15,0,0,0-1-1.84A7.64,7.64,0,0,0,187,124c-.28-.16-.64-.4-.55-.72a.54.54,0,0,1,.49-.33Z" style="fill:#f28f8f"></path><path d="M191.78,108.77a52.54,52.54,0,0,0,.68,9.94,34.21,34.21,0,0,0-.68-9.94Z" style="fill:#f28f8f"></path><path d="M151.7,182.78a133.38,133.38,0,0,0,12.07-11.71c3.59-3.84,9.19-10.4,9.19-10.4l7.54-19.46s1,2.12,5.53,3.44,6.65-.19,6.65-.19-1.12,9.75-2.52,16.86-.93,7.31-5.41,13.78-16.22,22.51-19.3,26.33-6.61,11.57-6.61,11.36S151.7,182.78,151.7,182.78Z" style="fill:#37474f"></path></g><g id="freepik--chest--inject-121"><path id="freepik--chest--inject-121" d="M127.24,186.68a95.62,95.62,0,0,0-16.9,6.16s-4.16,9-2.3,29.66c.3,3.3,1,12.2,1.35,19.07a107.69,107.69,0,0,1-.35,16.78s8.55,7.7,31.16,6.33c17.74-1.08,23.18-8.29,23.18-8.29s.26-23.91,0-37c-.36-17.18-5.41-27.17-9.2-30.22l-11.6-2.11Z" style="fill:#f0f0f0"></path><path d="M125.19,186.72v1.15s4.11,10.28,4.18,30.42-.83,52.38-.83,52.38-13.75-.48-22.86-8c0,0,2-17.44,1.89-25.45s-2.12-19.6-4.23-31c-2.14-11.6,14.21-26.75,14.21-26.75A27,27,0,0,0,125.19,186.72Z" style="fill:#25D366"></path><path d="M143,185.8c4.13-.25,5.4-1,8.71-3a56.48,56.48,0,0,1,11.41,26.59c2.18,15.83,2.83,54.13,2.83,54.13a27.47,27.47,0,0,1-7.62,2.74s-.44-18.86-1.19-36.24c-.91-21-2.14-34.18-14.16-42.89Z" style="fill:#25D366"></path><path d="M127,211.75l.24-.45c-2-.85-4.12-1.65-6.19-2.45-.18-6.15-.45-12.53-.91-18.64-.16,6.23-.11,12.72,0,19v.3l.28.11c1.83.75,3.66,1.48,5.51,2.18l-2.3,4.44c-.9,1.7-1.73,3.44-2.6,5.15l.17.15q3.18,3,6.45,5.84c-1.92-2.07-3.87-4.1-5.85-6.11C123.43,218.47,125.52,214.54,127,211.75Zm35.46,3.77c-1.4-2.35-2.84-4.67-4.29-7l2.22-3.25.13-.19c-2-6.18-5.74-11.65-10-16.43a75.77,75.77,0,0,1,7.36,12.12,38.45,38.45,0,0,1,1.62,4.16l-2.24,3.32-.17.25.16.26c1.5,2.34,3,4.67,4.59,7-1,2.64-2.07,5.28-3,7.95,1.29-2.6,2.51-5.22,3.7-7.86l.07-.15Z" style="opacity:0.30000000000000004"></path></g><g id="freepik--head--inject-121"><path d="M122.29,151s-3.27.16-4.8,2.65-2.47,7-.52,12.1c2.14,5.59,6.32,11,7.23,12.54a4.48,4.48,0,0,0,2.66,2l-.47-6.88-.47-4.79s3.72-3.68,3.91-7.14a11,11,0,0,0-1.61-6.9Z" style="fill:#263238"></path><path d="M146.19,158a17.63,17.63,0,0,0-6.31-1.07l-5.79-.13-6.2-.13s-6.64-.82-6.85-5.49a7.2,7.2,0,0,1,1.19-4.22,14.22,14.22,0,0,1,3.28-3.42,17.92,17.92,0,0,1,8.89-3.45,29.29,29.29,0,0,1,7.59.34,14.73,14.73,0,0,0,5.12.21,3.07,3.07,0,0,0,2.63-2.25,5.35,5.35,0,0,1,.8,5.76,3.79,3.79,0,0,1,3.77,2.64c.56,1.77-.21,3.25-1.21,4.64.13-.17.85,1.12.9,1.23a3.58,3.58,0,0,1-1.87,5.18A6.64,6.64,0,0,1,146.19,158Z" style="fill:#263238"></path><path d="M120.18,175.61c3.64,1.59,5.15-1.31,5.15-1.31l-.15,13.57C131,198,149.33,196,144,188.05l-.1-4a17,17,0,0,0,3.08-.44c4.93-1.1,6.08-4.11,6.7-7.61,1-5.43.47-12.91-1.81-21.44-.44-1.65-1.24-3.44-2.8-4.13-3.87-1.71-7.26,1.15-12.45,3.43-2.16.95-7.45,1.56-8.87,1,1.93,2,2.19,8.38-.41,11.11a5.91,5.91,0,0,1-1.29,1.83c-1.11,1.06-2.17-1.5-3.18-2.47a4,4,0,0,0-6.13,1.69A6.48,6.48,0,0,0,120.18,175.61Z" style="fill:#ffa8a7"></path><path d="M143.92,184.05c-4.15.16-7.69-.18-10.6-1.58-2.4-1.14-5.81-4.47-6.66-7.72.29,5.25,2.34,7.64,6.13,9.43s8.46,2,11.18,1.91Z" style="fill:#f28f8f"></path><path d="M137.31,158.42l-3.09,2.23a2,2,0,0,1,.45-2.73A1.87,1.87,0,0,1,137.31,158.42Z" style="fill:#263238"></path><path d="M150.8,158.92l-3.5-1.55a1.82,1.82,0,0,1,2.46-1A2,2,0,0,1,150.8,158.92Z" style="fill:#263238"></path><path d="M135.82,163.42a1.55,1.55,0,1,0,1.43-1.67A1.55,1.55,0,0,0,135.82,163.42Z" style="fill:#263238"></path><path d="M147.39,162.43a1.55,1.55,0,1,0,3.09-.24,1.54,1.54,0,0,0-1.66-1.42A1.41,1.41,0,0,0,147.39,162.43Z" style="fill:#263238"></path><path d="M142.29,160.68l1.7,9.81,5.13-2.15A23.17,23.17,0,0,0,142.29,160.68Z" style="fill:#f28f8f"></path><path d="M138.71,171.58l6.38,1.52a3.45,3.45,0,0,1-4.07,2.49A3.2,3.2,0,0,1,138.71,171.58Z" style="fill:#b16668"></path><path d="M142.55,175.57a4.67,4.67,0,0,0-4-3.18,3.18,3.18,0,0,0,2.42,3.2A3.29,3.29,0,0,0,142.55,175.57Z" style="fill:#f28f8f"></path></g><g id="freepik--block--inject-121"><path d="M114.24,128.47l35.63,17.87a13.87,13.87,0,0,0,12.52-.73l33.3-21.92a13.85,13.85,0,0,0,5.62-11.21L199,72.68a13.88,13.88,0,0,0-6.9-10.47L156.45,44.33a13.87,13.87,0,0,0-12.52.74L110.63,67A13.85,13.85,0,0,0,105,78.2L107.35,118A13.88,13.88,0,0,0,114.24,128.47Z" style="fill:#25D366"></path><path d="M114.24,128.47l35.63,17.87a13.87,13.87,0,0,0,12.52-.73l33.3-21.92a13.85,13.85,0,0,0,5.62-11.21L199,72.68a13.88,13.88,0,0,0-6.9-10.47L156.45,44.33a13.87,13.87,0,0,0-12.52.74L110.63,67A13.85,13.85,0,0,0,105,78.2L107.35,118A13.88,13.88,0,0,0,114.24,128.47Z" style="opacity:0.4"></path><path d="M192.5,69.43,159.21,91.35a13.85,13.85,0,0,0-5.62,11.22l2.33,39.79c.24,4,3.13,5.45,6.47,3.25l33.3-21.92a13.85,13.85,0,0,0,5.62-11.21L199,72.68C198.74,68.69,195.84,67.24,192.5,69.43Z" style="fill:#25D366"></path><path d="M171.54,127.49a.53.53,0,0,1-.62.05.8.8,0,0,1-.3-.66L169,99a2.13,2.13,0,0,1,.21-1,1.65,1.65,0,0,1,.57-.74L179,91.17a7,7,0,0,1,3.4-1.36,3.27,3.27,0,0,1,2.29.7,4.46,4.46,0,0,1,1.33,2,9,9,0,0,1,.53,2.55,11.13,11.13,0,0,1-.12,2.47,13.89,13.89,0,0,1-.51,2.13,15.85,15.85,0,0,1-.65,1.67,8.46,8.46,0,0,1-.54,1,3.86,3.86,0,0,1,1.94,1.4,6.57,6.57,0,0,1,1.06,3.68,15.32,15.32,0,0,1-.25,3.55,18.54,18.54,0,0,1-1.11,3.76,16.3,16.3,0,0,1-2,3.48,11.31,11.31,0,0,1-2.88,2.73Zm10.78-29.44c-.06-1.1-.36-1.76-.89-2s-1.35,0-2.43.72l-5.54,3.65.39,6.65,5.54-3.65a6.72,6.72,0,0,0,2.33-2.41A5.48,5.48,0,0,0,182.32,98.05Zm-7.72,21.82,5.79-3.82a6.62,6.62,0,0,0,2.46-2.67,6.36,6.36,0,0,0,.64-3.18,2.37,2.37,0,0,0-1-2.13q-.9-.5-2.55.6l-5.8,3.81Z" style="fill:#fff"></path><path d="M111.06,74.21l35.63,17.88a13.87,13.87,0,0,0,12.52-.74L192.5,69.43c3.34-2.19,3.15-5.43-.42-7.22L156.45,44.33a13.87,13.87,0,0,0-12.52.74L110.63,67C107.29,69.18,107.48,72.42,111.06,74.21Z" style="fill:#25D366"></path><path d="M111.06,74.21l35.63,17.88a13.87,13.87,0,0,0,12.52-.74L192.5,69.43c3.34-2.19,3.15-5.43-.42-7.22L156.45,44.33a13.87,13.87,0,0,0-12.52.74L110.63,67C107.29,69.18,107.48,72.42,111.06,74.21Z" style="fill:#fff;opacity:0.15"></path><path d="M111.06,74.21l35.63,17.88a13.88,13.88,0,0,1,6.9,10.48l2.33,39.79c.24,4-2.47,5.77-6,4l-35.63-17.87A13.88,13.88,0,0,1,107.35,118L105,78.2C104.78,74.2,107.48,72.42,111.06,74.21Z" style="fill:#25D366"></path><path d="M111.06,74.22l35.63,17.87a13.84,13.84,0,0,1,6.89,10.48l2.34,39.79c.23,4-2.47,5.77-6,4l-35.63-17.87a13.91,13.91,0,0,1-6.9-10.48L105,78.2C104.77,74.21,107.48,72.42,111.06,74.22Z" style="opacity:0.2"></path></g><g id="freepik--arm--inject-121"><path d="M135.51,112.19a1.18,1.18,0,0,0-.56-.92,1.24,1.24,0,0,0-1.15.06,3.55,3.55,0,0,0-.9.79,33,33,0,0,0-2.43,3.09c-.16.23-1.39,1.94-1.36,1a3.59,3.59,0,0,1,.36-1.12q2.24-4.55,4.19-9.23c.28-.66.46-1.79-.22-2.29a1.63,1.63,0,0,0-2,.43,6.12,6.12,0,0,0-.79,1,34.19,34.19,0,0,0-1.95,3.31,12.22,12.22,0,0,1-.76,1.37c-.06.09-.48.7-.56.35a.53.53,0,0,1,0-.25c.6-1.59,1.35-3.11,2.07-4.65.36-.78.71-1.56,1-2.36.21-.54.76-1.46.51-2a1.1,1.1,0,0,0-.43-.45,1.81,1.81,0,0,0-1.88,0,4.73,4.73,0,0,0-.86.75,7.36,7.36,0,0,0-.66,1c0-1-1.31-1.3-2-.76a8.25,8.25,0,0,0-2.36,3.57c-.68,1.48-1.31,3-2,4.48-.5,1.14-.84,2.37-1.4,3.51-.11.24-.26.46-.53.43-.07-2.27,1.37-5-.9-6.69a1,1,0,0,0-.43-.21c-.78-.1-1.91,4.92-2.16,5.69a23.14,23.14,0,0,0-1,4.72,20.4,20.4,0,0,1-.36,4.13,15.39,15.39,0,0,1-1.5,3.43,32.07,32.07,0,0,1-4.36,5.45c-2.24,2.39-4.18,4.1-6.94,7.24a38,38,0,0,0,5.4,3.47,28.64,28.64,0,0,0,7.67,2.53c2.09-3.49,3.72-6.17,5.94-9.67.1-.16.21-.32.32-.47s.31-.39.47-.57c2.14-2.4,4.7-4,6.8-6.48a44,44,0,0,0,4.18-6.44c.56-1,1-2,1.61-2.89a18.7,18.7,0,0,0,1.6-3,2.88,2.88,0,0,0,.25-1.18A.28.28,0,0,0,135.51,112.19Z" style="fill:#ffa8a7"></path><path d="M127.19,101.94a53.35,53.35,0,0,1-4.36,9,33.83,33.83,0,0,1,4.36-9Z" style="fill:#f28f8f"></path><path d="M117.54,179.43a133.58,133.58,0,0,1-7.1-15.25c-2-4.87-2.91-8-2.91-8l13-22.55s-1.77.48-6-2-3.86-4.75-3.86-4.75S96.87,139.55,91.8,145.3c-4.8,5.43-4.28,7.52-2.4,15.16s8,25.08,9.49,29.75,4.44,16,4.44,16C109.89,207.93,119.56,194,117.54,179.43Z" style="fill:#37474f"></path></g></g></g></g></svg>
