<?xml version="1.0" encoding="utf-8"?>
<!-- Generator: Adobe Illustrator 22.0.0, SVG Export Plug-In . SVG Version: 6.00 Build 0)  -->
<svg version="1.1" id="Layer_1" xmlns="http://www.w3.org/2000/svg" xmlns:xlink="http://www.w3.org/1999/xlink" x="0px" y="0px"
	 viewBox="0 0 212 206.1" style="enable-background:new 0 0 212 206.1;" xml:space="preserve">
<style type="text/css">
	.st0{fill:#FFFFFF;}
</style>
<g>
	<polygon class="st0" points="103.2,94.8 103.2,94.8 103.2,94.8 	"/>
	<path class="st0" d="M102.9,115c-24.8,0-3.5,33.3,0,40.9c0,0,0,0,0,0C106.3,148.4,127.7,115,102.9,115z"/>
	<path class="st0" d="M195.2,118.8c2.8-24.3-10-35.5-14-42.7c13.1-14.8,14.9-29.9,19.8-48.7c-33.3,25-65.7,34.6-98,34.7
		c-32.4,0-64.9-9.6-98.2-34.7c4.9,18.8,6.6,33.9,19.8,48.7c-4,7.1-16.7,18.4-14,42.7C29,98,38.9,96.6,50.5,95.8
		c15.7,0,27.8,13.4,27.8,29.1c0,15.3-12.4,27.8-27.8,27.8c-16.8,0-24.1-3.8-39.9-21.7c-3.9,47.7,61.8,74.3,92.3,39.2
		c30.5,35.1,96.2,8.5,92.3-39.2c-15.9,17.9-23.1,21.7-39.9,21.7c-15.3,0-27.8-12.4-27.8-27.8c0-15.7,12.1-29.1,27.8-29.1
		C166.9,96.6,176.8,98,195.2,118.8z M155.1,86.3c-21.7,0-39.2,17.6-39.2,39.2c0,21.7,17.6,39.2,39.2,39.2c15.7,0,29.3-9.2,35.5-22.6
		c-6.9,19.6-25.6,33.7-47.5,33.7c-16.4,0-31-7.8-40.2-20c0,0,0,0,0,0c0,0,0,0,0,0c-0.1-0.1-0.2-0.2-0.2-0.3
		c-9.2,12-23.7,19.7-39.9,19.7c-22,0-40.6-14.1-47.5-33.7c6.3,13.3,19.8,22.6,35.5,22.6c21.7,0,39.2-17.6,39.2-39.2
		c0-21.5-17.9-39.2-39.2-39.2c-15.7,0-29.3,9.2-35.5,22.6C20,94.4,30.7,83.4,44.2,78c-10.6-7.5-18-16.9-20.7-27.5
		c18,13.5,46.9,22.3,79.5,22.3c32.6,0,61.5-8.8,79.5-22.3C179.6,61.3,171.9,71,161,78.5c13.8,5.3,24.7,16.4,29.6,30.4
		C184.3,95.5,170.8,86.3,155.1,86.3z"/>
	<path class="st0" d="M51.3,102.9c-12.3,0-22.3,10-22.3,22.3c0,12.3,10,22.3,22.3,22.3c12.3,0,22.3-10,22.3-22.3
		C73.6,112.9,63.6,102.9,51.3,102.9z M51.3,136.1c-6,0-10.9-4.9-10.9-10.9c0-6,4.9-10.9,10.9-10.9c6,0,10.9,4.9,10.9,10.9
		C62.2,131.2,57.3,136.1,51.3,136.1z"/>
	<path class="st0" d="M154.5,102.9c-12.3,0-22.3,10-22.3,22.3c0,12.3,10,22.3,22.3,22.3c12.3,0,22.3-10,22.3-22.3
		C176.8,112.9,166.8,102.9,154.5,102.9z M154.5,136.1c-6,0-10.9-4.9-10.9-10.9c0-6,4.9-10.9,10.9-10.9c6,0,10.9,4.9,10.9,10.9
		C165.4,131.2,160.5,136.1,154.5,136.1z"/>
	<path class="st0" d="M102.9,155.9C102.9,155.9,102.9,155.9,102.9,155.9C102.9,155.9,102.9,155.9,102.9,155.9
		C102.9,155.9,102.9,155.9,102.9,155.9z"/>
</g>
</svg>
