<?xml version="1.0" encoding="utf-8"?>
<!-- Generator: Adobe Illustrator 23.1.1, SVG Export Plug-In . SVG Version: 6.00 Build 0)  -->
<svg version="1.1" id="Camada_1" xmlns="http://www.w3.org/2000/svg" xmlns:xlink="http://www.w3.org/1999/xlink" x="0px" y="0px"
	 viewBox="0 0 586.3 395.6" style="enable-background:new 0 0 586.3 395.6;" xml:space="preserve">
<style type="text/css">
	.st0{fill:#FFFFFF;}
	.st1{fill:#D6D6D6;}
	.st2{fill:#EC6508;}
</style>
<path class="st0" d="M488.8,336.1H110.1c-6.6,0-12-5.4-12-12v-261c0-6.6,5.4-12,12-12h378.8c6.6,0,12,5.4,12,12V324
	C500.9,330.7,495.5,336.1,488.8,336.1z"/>
<path class="st1" d="M491,333.6H110.8c-8,0-14.5-6.5-14.5-14.5v-261c0-8,6.5-14.5,14.5-14.5H491c8,0,14.5,6.5,14.5,14.5v261
	C505.5,327.1,498.9,333.6,491,333.6z M110.8,48.6c-5.2,0-9.5,4.3-9.5,9.5v261c0,5.2,4.3,9.5,9.5,9.5H491c5.2,0,9.5-4.3,9.5-9.5v-261
	c0-5.2-4.3-9.5-9.5-9.5C491,48.6,110.8,48.6,110.8,48.6z"/>
<g>
	<rect x="176.4" y="101.8" class="st1" width="259" height="168.7"/>
</g>
<g>
	<rect x="176.4" y="126.8" class="st1" width="259" height="118.7"/>
</g>
<circle class="st0" cx="304.8" cy="185.2" r="36"/>
<g>
	<polygon class="st2" points="329.4,186.1 311.6,196.4 293.7,206.7 293.7,186.1 293.7,165.5 311.6,175.8 	"/>
</g>
<g>
	<g>
		<rect x="186.7" y="108" class="st0" width="12.4" height="12.4"/>
		<rect x="211.8" y="108" class="st0" width="12.4" height="12.4"/>
		<rect x="237" y="108" class="st0" width="12.4" height="12.4"/>
		<rect x="262.1" y="108" class="st0" width="12.4" height="12.4"/>
		<rect x="287.2" y="108" class="st0" width="12.4" height="12.4"/>
		<rect x="312.4" y="108" class="st0" width="12.4" height="12.4"/>
		<rect x="337.5" y="108" class="st0" width="12.4" height="12.4"/>
		<rect x="362.7" y="108" class="st0" width="12.4" height="12.4"/>
		<rect x="387.8" y="108" class="st0" width="12.4" height="12.4"/>
		<rect x="412.9" y="108" class="st0" width="12.4" height="12.4"/>
	</g>
	<g>
		<rect x="186.7" y="250.9" class="st0" width="12.4" height="12.4"/>
		<rect x="211.8" y="250.9" class="st0" width="12.4" height="12.4"/>
		<rect x="237" y="250.9" class="st0" width="12.4" height="12.4"/>
		<rect x="262.1" y="250.9" class="st0" width="12.4" height="12.4"/>
		<rect x="287.2" y="250.9" class="st0" width="12.4" height="12.4"/>
		<rect x="312.4" y="250.9" class="st0" width="12.4" height="12.4"/>
		<rect x="337.5" y="250.9" class="st0" width="12.4" height="12.4"/>
		<rect x="362.7" y="250.9" class="st0" width="12.4" height="12.4"/>
		<rect x="387.8" y="250.9" class="st0" width="12.4" height="12.4"/>
		<rect x="412.9" y="250.9" class="st0" width="12.4" height="12.4"/>
	</g>
</g>
<g>
	<path class="st2" d="M408.1,285.9H248.5c1.3,16.7,17,29.9,36.3,29.9h123.3L408.1,285.9L408.1,285.9z"/>
	<path class="st2" d="M406.1,309.9V184.7c0-18.6-13.2-33.8-29.9-35.1v160.3L406.1,309.9L406.1,309.9z"/>
	<path class="st0" d="M393.3,310.3c6.2,0,11.3-5,11.3-11.3c0-6.2-5-11.3-11.3-11.3s-11.3,5-11.3,11.3S387.1,310.3,393.3,310.3z"/>
	<path class="st2" d="M378.2,315.8v19.8c-7.1,3.4-12,10.6-12,18.9c0,11.6,9.4,21,21,21c11.2,0,20.3-8.7,20.9-19.7l0.1-40
		L378.2,315.8L378.2,315.8z M387.3,368.9c-8.2,0-14.8-6.5-14.8-14.4c0-8,6.6-14.4,14.8-14.4c8.2,0,14.8,6.5,14.8,14.4
		C402.1,362.5,395.5,368.9,387.3,368.9z"/>
	<path class="st2" d="M408.1,315.8l40-0.1c11-0.6,19.7-9.7,19.7-20.9c0-11.6-9.4-21-21-21c-8.4,0-15.6,4.9-18.9,12h-19.8
		L408.1,315.8L408.1,315.8z M446.8,309.8c-8,0-14.4-6.6-14.4-14.8c0-8.2,6.5-14.8,14.4-14.8c8,0,14.4,6.6,14.4,14.8
		C461.3,303.1,454.8,309.8,446.8,309.8z"/>
</g>
</svg>
